<svg width="30" height="35" viewBox="0 0 30 35" fill="none" xmlns="http://www.w3.org/2000/svg">
<path d="M2.87716 11.2295H2.7893C1.66304 11.2295 0.744751 12.1507 0.744751 13.2741V22.1759C0.744751 23.3037 1.66304 24.2219 2.7893 24.2219H2.87865C4.00491 24.2219 4.9232 23.3007 4.9232 22.1759V13.274C4.92171 12.1507 4.00199 11.2295 2.87716 11.2295Z" fill="white"/>
<path d="M5.90179 25.6113C5.90179 26.6453 6.74684 27.4875 7.78084 27.4875H9.78882V32.2957C9.78882 33.4249 10.71 34.3432 11.8334 34.3432H11.9213C13.049 34.3432 13.9687 33.4235 13.9687 32.2957V27.4875H16.7749V32.2957C16.7749 33.4249 17.6991 34.3432 18.8224 34.3432H18.9089C20.0366 34.3432 20.9549 33.4235 20.9549 32.2957V27.4875H22.9643C23.9968 27.4875 24.8419 26.6453 24.8419 25.6113V11.5557H5.90179V25.6113Z" fill="white"/>
<path d="M20.0892 3.03171L21.6841 0.569761C21.7867 0.414481 21.7412 0.202167 21.5845 0.101068C21.4293 -0.00145633 21.2169 0.0410472 21.1158 0.200673L19.4624 2.74762C18.2219 2.23942 16.8364 1.95384 15.3732 1.95384C13.9086 1.95384 12.526 2.23942 11.2826 2.74762L9.63207 0.200673C9.53103 0.0410472 9.31716 -0.00145633 9.16045 0.101068C9.00375 0.202099 8.95833 0.414481 9.06085 0.569761L10.6572 3.03171C7.7793 4.44213 5.83875 7.10036 5.83875 10.1496C5.83875 10.3371 5.85049 10.5216 5.86658 10.7047H24.8813C24.8973 10.5216 24.9076 10.3371 24.9076 10.1496C24.9077 7.10036 22.9656 4.44213 20.0892 3.03171ZM10.9648 7.44012C10.4595 7.44012 10.0494 7.03294 10.0494 6.52623C10.0494 6.01951 10.4595 5.61376 10.9648 5.61376C11.473 5.61376 11.8802 6.01944 11.8802 6.52623C11.8802 7.03301 11.4701 7.44012 10.9648 7.44012ZM19.7802 7.44012C19.2749 7.44012 18.8648 7.03294 18.8648 6.52623C18.8648 6.01951 19.2749 5.61376 19.7802 5.61376C20.2869 5.61376 20.6941 6.01944 20.6941 6.52623C20.6941 7.03294 20.2869 7.44012 19.7802 7.44012Z" fill="white"/>
<path d="M27.9539 11.2295H27.8689C26.7426 11.2295 25.8214 12.1507 25.8214 13.2741V22.1759C25.8214 23.3037 26.7441 24.2219 27.8689 24.2219H27.9554C29.0831 24.2219 30 23.3007 30 22.1759V13.274C30 12.1507 29.0801 11.2295 27.9539 11.2295Z" fill="white"/>
</svg>
