<svg width="36" height="36" viewBox="0 0 36 36" fill="none" xmlns="http://www.w3.org/2000/svg">
<g clip-path="url(#clip0)">
<path d="M27.826 19.1282C27.7806 14.5691 31.5442 12.3826 31.7123 12.274C29.5976 9.17951 26.3035 8.75559 25.1296 8.70659C22.3262 8.42273 19.6594 10.3571 18.2367 10.3571C16.8175 10.3571 14.622 8.74856 12.297 8.79082C9.24131 8.83624 6.42382 10.5675 4.85044 13.3042C1.67569 18.8132 4.03742 26.9743 7.13173 31.4422C8.64373 33.6292 10.4467 36.0855 12.8139 35.9977C15.0935 35.9068 15.9555 34.5227 18.7116 34.5227C21.4675 34.5227 22.2423 35.9977 24.6547 35.9525C27.1077 35.9069 28.6618 33.7236 30.1634 31.53C31.8997 28.9928 32.6147 26.5364 32.6568 26.4104C32.6024 26.3855 27.8734 24.5739 27.826 19.1282ZM23.2931 5.74882C24.5495 4.22452 25.3976 2.10973 25.1663 0C23.3565 0.0736875 21.1628 1.20551 19.8643 2.72637C18.6993 4.07552 17.6794 6.22884 17.9527 8.29638C19.973 8.45402 22.0354 7.26968 23.2931 5.74882Z" fill="white"/>
</g>
<defs>
<clipPath id="clip0">
<rect width="36" height="36" fill="white"/>
</clipPath>
</defs>
</svg>
