<svg width="60" height="60" viewBox="0 0 60 60" fill="none" xmlns="http://www.w3.org/2000/svg">
<path d="M57.2343 57.6563H54.664V20.3363C54.664 18.5992 53.2507 17.186 51.5138 17.186H45.7688C44.0317 17.186 42.6185 18.5993 42.6185 20.3363V57.6563H36.0921V37.2451C36.0921 35.5081 34.679 34.0949 32.9419 34.0949H27.1969C25.4598 34.0949 24.0466 35.5082 24.0466 37.2451V57.6563H17.5202V47.0855C17.5202 45.3484 16.107 43.9353 14.37 43.9353H8.62489C6.88782 43.9353 5.47465 45.3485 5.47465 47.0855V57.6563H2.76575C2.11852 57.6563 1.59387 58.1809 1.59387 58.8281C1.59387 59.4754 2.11852 60 2.76575 60H57.2343C57.8815 60 58.4061 59.4754 58.4061 58.8281C58.4061 58.1809 57.8815 57.6563 57.2343 57.6563ZM15.1763 57.6563H7.81829V47.0855C7.81829 46.6408 8.18005 46.279 8.62477 46.279H14.3698C14.8145 46.279 15.1763 46.6408 15.1763 47.0855V57.6563ZM33.7482 57.6563H26.3903V37.2451C26.3903 36.8004 26.752 36.4387 27.1968 36.4387H32.9418C33.3864 36.4387 33.7482 36.8004 33.7482 37.2451V57.6563ZM52.3202 57.6563H44.9623V20.3363C44.9623 19.8915 45.324 19.5298 45.7688 19.5298H51.5138C51.9585 19.5298 52.3202 19.8915 52.3202 20.3363V57.6563Z" fill="white"/>
<path d="M54.6612 1.23234C54.6777 0.912539 54.5652 0.587344 54.3209 0.343125C54.0767 0.0989062 53.7515 -0.0137109 53.4317 0.0028125C53.4129 0.00199219 53.3942 0 53.375 0H46.2852C45.6379 0 45.1133 0.524648 45.1133 1.17188C45.1133 1.8191 45.6379 2.34375 46.2852 2.34375H50.6629L39.0781 13.9287L34.7094 9.55992C34.4896 9.3402 34.1915 9.21668 33.8807 9.21668C33.57 9.21668 33.2718 9.3402 33.0521 9.55992L11.9854 30.6267C11.5278 31.0843 11.5278 31.8264 11.9854 32.2841C12.2143 32.5127 12.5142 32.6271 12.8141 32.6271C13.1139 32.6271 13.4139 32.5127 13.6427 32.2839L33.8807 12.0457L38.2495 16.4145C38.7071 16.8721 39.4491 16.8721 39.9069 16.4145L52.3203 4.00113V7.96324C52.3203 8.61047 52.845 9.13512 53.4922 9.13512C54.1394 9.13512 54.6641 8.61047 54.6641 7.96324V1.28906C54.6641 1.26996 54.6621 1.25133 54.6612 1.23234Z" fill="white"/>
<path d="M8.86401 36.7159C9.51122 36.7159 10.0359 36.1913 10.0359 35.5441C10.0359 34.8969 9.51122 34.3722 8.86401 34.3722C8.2168 34.3722 7.69214 34.8969 7.69214 35.5441C7.69214 36.1913 8.2168 36.7159 8.86401 36.7159Z" fill="white"/>
</svg>
