<svg width="73" height="58" viewBox="0 0 73 58" fill="none" xmlns="http://www.w3.org/2000/svg">
<path d="M67.1729 13.6564C64.0866 9.50348 59.5705 6.66676 53.7609 5.14629C53.6021 3.30809 52.6036 0.925253 49.5172 0.35791C46.4082 -0.209432 44.5473 1.74223 43.753 3.6485C40.8936 3.58042 37.0584 3.87544 32.792 5.19167C27.9128 6.71215 23.5783 9.86658 20.6054 14.0649C17.2922 18.7398 15.6582 24.7083 15.8625 31.3121L0.544197 43.4306C0.0903224 43.7937 -0.0912273 44.4064 0.0903224 44.9737C0.294566 45.5184 0.816522 45.8815 1.40656 45.8588C1.47464 45.8588 5.19641 45.9042 13.6612 50.7833C14.6597 51.3507 15.6582 51.9861 16.7021 52.6669C20.6281 55.1859 25.008 57.9999 30.5907 57.9999C36.8314 57.9999 44.5927 54.4824 54.9183 43.1129C55.3949 43.1356 55.8715 43.1356 56.348 43.1356C60.0925 43.1356 63.61 42.7725 66.8098 42.0463C69.1927 41.5016 70.9855 39.5953 71.394 37.1671C72.3471 31.7433 73.0052 21.4631 67.1729 13.6564ZM49.0406 3.03577C50.1299 3.24001 50.6519 3.87544 50.9015 4.51086C50.2434 4.39739 49.5853 4.30662 48.9272 4.21584C48.6549 4.14776 47.906 3.98891 46.7713 3.85274C47.1798 3.30809 47.8833 2.83153 49.0406 3.03577ZM33.6089 7.80145C40.644 5.62285 46.4536 6.50791 47.9514 6.80293C48.4733 7.43835 49.8576 9.36732 50.7427 13.316C51.8093 18.0363 52.3539 26.433 48.9272 39.9357C35.5606 38.2564 22.2167 32.6738 18.5857 31.0625C18.268 17.4917 26.0746 10.1389 33.6089 7.80145ZM31.7254 55.254C26.3923 55.6625 22.2394 52.9846 18.1999 50.3975C17.156 49.7394 16.0894 49.0586 15.0455 48.4459C10.2344 45.6773 6.83035 44.361 4.60637 43.7256L17.451 33.5588C21.899 35.5332 36.8087 41.7285 51.4008 42.9313C43.9573 50.7833 37.5122 54.8228 31.7254 55.254ZM68.7615 36.7359C68.5346 38.0749 67.5587 39.1188 66.2652 39.4138C62.6796 40.2308 58.6401 40.5485 54.2829 40.3896C53.4205 40.3669 52.5582 40.2988 51.6731 40.2308C56.3707 21.4177 53.7383 11.7275 51.537 7.41566C57.5054 8.66381 62.0215 11.2963 64.9943 15.2677C70.2139 22.28 69.6012 31.7206 68.7615 36.7359Z" fill="white"/>
</svg>
