<svg width="65" height="65" viewBox="0 0 65 65" fill="none" xmlns="http://www.w3.org/2000/svg">
<g clip-path="url(#clip0)">
<path d="M54.2006 48.5184C53.9944 48.0349 53.4351 47.8103 52.9512 48.0163C52.4675 48.2228 52.2427 48.7821 52.4491 49.2658C53.7178 52.2396 53.4813 54.3227 53.0593 55.5469C52.5586 57.0018 51.4959 58.1045 50.0687 58.6512C49.4051 58.9038 48.6845 59.0319 47.9269 59.0319H45.0453V55.7108H47.9268C49.2152 55.7108 49.7211 55.0346 49.9204 54.4623C50.1267 53.8615 50.4112 52.1268 48.6038 49.0047C47.7481 47.5245 46.051 45.14 42.8252 42.1853C42.5467 41.9301 42.1441 41.8637 41.7985 42.0159C41.4529 42.1679 41.2299 42.5099 41.2299 42.8873V52.7277C39.9904 52.9098 39.0349 53.977 39.0349 55.2663V59.452C39.0349 60.7412 39.9904 61.8087 41.2299 61.9906V64.0477C41.2299 64.5737 41.6562 64.9999 42.182 64.9999C42.7079 64.9999 43.1342 64.5737 43.1342 64.0477V61.9924C43.8042 61.8902 44.3768 61.4928 44.7159 60.9361H47.9266C48.5055 60.9361 49.0696 60.8762 49.6151 60.7608L50.0888 64.1784C50.1549 64.6549 50.5628 65 51.0308 65C51.0743 65 51.1184 64.9971 51.1627 64.9909C51.6836 64.9187 52.0473 64.438 51.975 63.9171L51.4486 60.1184C53.0592 59.2979 54.2569 57.918 54.8597 56.1671C55.3907 54.6269 55.7072 52.0496 54.2006 48.5184ZM43.141 59.7699C43.141 59.961 42.9855 60.1164 42.7946 60.1164H42.192C42.191 60.1164 42.1972 60.1164 42.1724 60.1164H41.604C41.2375 60.1165 40.9394 59.8184 40.9394 59.4519V55.2661C40.9394 54.8996 41.2375 54.6015 41.604 54.6015H42.7946C42.9856 54.6015 43.141 54.757 43.141 54.948V59.7699ZM43.1343 52.7257V45.1287C45.1631 47.1975 46.3178 48.8546 46.9556 49.9582C48.1492 52.0202 48.2527 53.3353 48.1351 53.7913C48.0909 53.7992 48.0236 53.8064 47.9268 53.8064H44.7308C44.3938 53.2369 43.8141 52.8294 43.1343 52.7257Z" fill="#F92F5F"/>
<path d="M36.5686 23.1825C36.0814 22.9851 35.526 23.2197 35.3283 23.7069C34.8598 24.8626 33.7498 25.609 32.501 25.609C31.6866 25.609 30.9196 25.2914 30.3424 24.7156C30.0513 24.4244 29.8264 24.0856 29.6742 23.7084C29.4773 23.2206 28.9225 22.9851 28.4349 23.1818C27.947 23.3787 27.7113 23.9335 27.9081 24.4211C28.1566 25.037 28.5225 25.5891 28.9966 26.063C29.9341 26.9983 31.1786 27.5135 32.5008 27.5135C34.5289 27.5135 36.3314 26.3003 37.093 24.4228C37.2907 23.9354 37.0558 23.3801 36.5686 23.1825Z" fill="#F92F5F"/>
<path d="M27.5522 17.2768C27.0264 17.2768 26.6001 17.703 26.6001 18.2289V18.7064C26.6001 19.2322 27.0264 19.6586 27.5522 19.6586C28.0781 19.6586 28.5044 19.2324 28.5044 18.7064V18.2289C28.5044 17.703 28.0781 17.2768 27.5522 17.2768Z" fill="#F92F5F"/>
<path d="M37.4495 17.2768C36.9236 17.2768 36.4973 17.703 36.4973 18.2289V18.7064C36.4973 19.2322 36.9236 19.6586 37.4495 19.6586C37.9753 19.6586 38.4016 19.2324 38.4016 18.7064V18.2289C38.4016 17.703 37.9753 17.2768 37.4495 17.2768Z" fill="#F92F5F"/>
<path d="M38.0463 46.5497L36.4259 44.6459C36.245 44.4334 35.9799 44.3109 35.7008 44.3109H29.3009C29.0217 44.3109 28.7566 44.4334 28.5759 44.6459L26.9556 46.5497C26.6904 46.8613 26.6539 47.3076 26.865 47.658L30.3486 53.4423C30.5209 53.7283 30.8304 53.9033 31.1643 53.9033H33.8376C34.1714 53.9033 34.481 53.7283 34.6532 53.4423L38.1368 47.658C38.3479 47.3074 38.3114 46.8613 38.0463 46.5497ZM33.2994 51.9991H31.7023L28.8496 47.2623L29.7408 46.2151H35.2608L36.152 47.2623L33.2994 51.9991Z" fill="#F92F5F"/>
<path d="M52.2002 44.9117C51.2627 43.5266 50.1032 42.1051 48.7558 40.6831L48.5068 38.8845C47.9507 34.8734 44.478 31.8488 40.429 31.8488H39.1062C39.4065 31.6172 39.6967 31.3713 39.9734 31.1075C41.7692 29.3977 42.9092 27.1589 43.2381 24.7279H44.6451C46.4435 24.7279 47.9065 23.2654 47.9065 21.4677V20.3748C47.9065 19.137 47.213 18.0584 46.1939 17.5064V8.34715C46.1939 5.30549 43.7195 2.83105 40.6778 2.83105H39.4126C38.4588 1.10246 36.6089 0 34.6234 0H28.159C25.991 0 23.8784 0.758797 22.2105 2.13636C21.8051 2.47126 21.7479 3.07137 22.0828 3.47686C22.4176 3.88222 23.0177 3.9396 23.4233 3.60457C24.7507 2.50821 26.4326 1.90429 28.159 1.90429H34.6234C37.1438 1.90429 37.9279 4.15288 37.9675 4.19846C38.1267 4.52676 38.4595 4.73534 38.8243 4.73534H40.6778C42.6693 4.73534 44.2896 6.35564 44.2896 8.34715V17.1146H43.3388V13.5993C43.3388 10.8551 42.1709 8.22439 40.1355 6.38243C39.7654 6.04689 39.2426 5.93898 38.7714 6.10059C38.2994 6.26246 37.9525 6.66921 37.8663 7.16141C37.2724 10.5372 34.3486 12.9873 30.914 12.9873H22.6151C22.0893 12.9873 21.663 13.4135 21.663 13.9394V17.1146H20.7121V9.35008C20.7121 8.29434 20.9282 7.27503 21.3543 6.32073C21.5686 5.84059 21.3532 5.27743 20.8731 5.06313C20.3929 4.84884 19.8299 5.0644 19.6155 5.54441C19.0796 6.74462 18.8079 8.02507 18.8079 9.35021V17.5064C17.7889 18.0584 17.0953 19.1371 17.0953 20.3748V21.4677C17.0953 23.2654 18.5583 24.7279 20.3567 24.7279H21.7645C22.153 27.5603 23.6639 30.1222 25.8982 31.8488H24.5728C20.5238 31.8488 17.051 34.8734 16.495 38.8848L16.2463 40.6812C14.426 42.6016 12.9554 44.5203 11.8748 46.3881C9.23287 50.9556 9.47421 54.2268 10.142 56.1667C10.7446 57.9175 11.9419 59.2971 13.5532 60.1181L13.0267 63.917C12.9546 64.4378 13.3182 64.9186 13.8391 64.9907C13.8835 64.9969 13.9275 64.9999 13.971 64.9999C14.4388 64.9999 14.8469 64.6548 14.913 64.1782L15.3867 60.7608C15.9319 60.8762 16.4962 60.936 17.0751 60.936H20.2859C20.625 61.4927 21.1975 61.89 21.8676 61.9922V64.0476C21.8676 64.5736 22.2939 64.9997 22.8198 64.9997C23.3456 64.9997 23.7719 64.5736 23.7719 64.0476V61.9903C25.0113 61.8083 25.9669 60.741 25.9669 59.4518V55.266C25.9665 53.9769 25.011 52.9096 23.7715 52.7276V42.8872C23.7715 42.5097 23.5485 42.1678 23.2029 42.0158C22.8573 41.8637 22.4545 41.9301 22.1762 42.1852C18.9504 45.1397 17.2532 47.5244 16.398 49.0041C14.5903 52.1268 14.8748 53.8614 15.0829 54.467C15.2804 55.0344 15.7864 55.7107 17.0748 55.7107H19.9562V59.0318H17.0748C16.3171 59.0318 15.5964 58.9037 14.9347 58.6517C13.5057 58.1043 12.443 57.0017 11.9423 55.547C11.4035 53.9816 11.2405 51.2874 13.5229 47.3415C14.5684 45.5343 16.0176 43.6626 17.8302 41.7783C17.8308 41.7778 17.8313 41.7771 17.8318 41.7766C17.8323 41.7761 17.8328 41.7755 17.8334 41.775C19.0467 40.5133 20.4431 39.2253 21.9821 37.948C22.0563 37.8868 22.1324 37.8289 22.2097 37.7734L23.3012 39.1379C23.9129 39.9023 24.8252 40.3407 25.804 40.3407H29.8654C30.6446 40.8655 31.5486 41.1419 32.5008 41.1419C33.4545 41.1419 34.3598 40.8646 35.1366 40.3407H39.1976C40.1764 40.3407 41.0886 39.9023 41.7007 39.1377L42.792 37.7734C42.8687 37.8287 42.9442 37.8859 43.0176 37.9465C44.5585 39.2253 45.955 40.5135 47.1682 41.7751C47.1691 41.776 47.1698 41.7769 47.1706 41.7778C47.1706 41.7778 47.1707 41.7778 47.1707 41.7779C48.5352 43.1969 49.6967 44.6103 50.6232 45.9791C50.8073 46.2511 51.1071 46.3977 51.4126 46.3977C51.5962 46.3977 51.7819 46.3447 51.9454 46.2339C52.381 45.9393 52.495 45.3473 52.2002 44.9117ZM22.2071 54.6017H23.3976C23.7642 54.6017 24.0622 54.8999 24.0622 55.2663V59.4519C24.0622 59.8184 23.7642 60.1165 23.3976 60.1165H22.8293C22.8283 60.1165 22.8345 60.1165 22.8096 60.1165H22.2071C22.016 60.1165 21.8605 59.961 21.8605 59.77V54.9481C21.8605 54.7571 22.016 54.6017 22.2071 54.6017ZM17.0749 53.8064C16.9781 53.8064 16.9109 53.7991 16.8668 53.7915C16.7494 53.3302 16.8547 52.0163 18.0464 49.9577C18.684 48.8546 19.8386 47.1976 21.8674 45.1287V52.7257C21.1875 52.8294 20.6079 53.2369 20.2708 53.8064H17.0749ZM25.804 38.4362C25.4067 38.4362 25.0362 38.2583 24.788 37.9481L22.7834 35.4422C22.4549 35.0314 21.8557 34.9647 21.4451 35.2934C21.1581 35.5229 21.0397 35.8847 21.1064 36.2219C20.9914 36.3043 20.878 36.39 20.7678 36.4809C19.982 37.1332 19.2319 37.7885 18.522 38.4426C19.2261 35.7249 21.7108 33.753 24.5726 33.753H27.7578V36.3987C27.7578 37.1178 27.9178 37.8102 28.2154 38.4362H25.804ZM35.3393 36.3987C35.3393 37.9693 34.066 39.2373 32.5007 39.2373C30.9615 39.2373 29.6621 37.9941 29.6621 36.3987V33.753C29.9103 33.7544 30.9324 34.0957 32.5008 34.0957C33.4192 34.0957 34.3181 33.9822 35.2045 33.7547C35.2069 33.7541 35.2092 33.7536 35.2116 33.753H35.3393V36.3987ZM32.5008 32.1913C31.2913 32.1913 30.1188 31.9445 29.0755 31.5115C25.9124 30.1966 23.7559 27.141 23.5811 23.727C23.5552 23.2208 23.1371 22.8236 22.6302 22.8236H20.3565C19.6081 22.8236 18.9994 22.2154 18.9994 21.4677V20.3748C18.9994 19.6272 19.6081 19.0189 20.3565 19.0189H22.615C23.1408 19.0189 23.5671 18.5928 23.5671 18.0668V14.8916H30.9139C34.9369 14.8916 38.4084 12.2426 39.5144 8.46496C40.7438 9.88125 41.4345 11.7067 41.4345 13.5992V18.0667C41.4345 18.5926 41.8608 19.0188 42.3866 19.0188H44.6451C45.3935 19.0188 46.0022 19.627 46.0022 20.3747V21.4676C46.0022 22.2152 45.3935 22.8235 44.6451 22.8235H42.3714C41.8646 22.8235 41.4467 23.2204 41.4205 23.7265C41.3024 26.0145 40.3222 28.1461 38.6598 29.7287C37.8625 30.4889 36.9428 31.0887 35.9261 31.5115C34.8407 31.9627 33.6882 32.1913 32.5008 32.1913ZM44.2319 36.4794C44.1224 36.3891 44.0098 36.3039 43.8953 36.2219C43.9618 35.8847 43.8435 35.5231 43.5566 35.2935C43.1459 34.965 42.5468 35.0316 42.2183 35.4423L40.2138 37.948C39.9654 38.2583 39.595 38.4364 39.1977 38.4364H36.7863C37.0857 37.8081 37.2439 37.1158 37.2439 36.3988V33.7531H40.4291C43.2909 33.753 45.7756 35.725 46.4797 38.4427C45.7693 37.7884 45.0189 37.1324 44.2319 36.4794Z" fill="#F92F5F"/>
</g>
<defs>
<clipPath id="clip0">
<rect width="65" height="65" fill="white"/>
</clipPath>
</defs>
</svg>
