<svg width="53" height="53" viewBox="0 0 53 53" fill="none" xmlns="http://www.w3.org/2000/svg">
<g clip-path="url(#clip0)">
<path d="M1.21627 10.5572C1.88813 10.5572 2.43254 10.0126 2.43254 9.34081V4.15431L10.2661 11.9873C10.5037 12.2247 10.8149 12.3434 11.1261 12.3434C11.4375 12.3434 11.7488 12.2247 11.9862 11.9871C12.4612 11.512 12.4612 10.7418 11.9861 10.2669L4.15218 2.43381H9.33916C10.0109 2.43381 10.5554 1.88917 10.5554 1.21738C10.5554 0.545594 10.011 0.000961304 9.33916 0.000961304H1.21627C0.544402 0.000961304 0 0.545594 0 1.21738V9.34097C0 10.0126 0.544402 10.5572 1.21627 10.5572Z" fill="#F92F5F"/>
<path d="M51.8068 42.6474C51.1479 42.6474 50.6139 43.1815 50.6139 43.8404V48.9271L42.694 41.007C42.228 40.5411 41.4728 40.5411 41.0069 41.007C40.541 41.4729 40.541 42.2283 41.0069 42.694L48.9266 50.614H43.8404C43.1814 50.614 42.6474 51.1482 42.6474 51.807C42.6474 52.4659 43.1814 53 43.8404 53H51.807C52.466 53 52.9999 52.4659 52.9999 51.807V43.8404C52.9998 43.1815 52.4657 42.6474 51.8068 42.6474Z" fill="#F92F5F"/>
<path d="M10.3058 41.007L2.38607 48.9268V43.8403C2.38607 43.1815 1.85207 42.6474 1.19304 42.6474C0.534003 42.6474 0 43.1815 0 43.8403V51.807C0 52.4659 0.534003 53 1.19304 53H9.15998C9.81885 53 10.353 52.4659 10.353 51.807C10.353 51.1482 9.81901 50.6141 9.15998 50.6141H4.07319L11.993 42.694C12.459 42.2281 12.459 41.4727 11.9929 41.0068C11.5273 40.5411 10.7719 40.5411 10.3058 41.007Z" fill="#F92F5F"/>
<path d="M51.7834 0H43.6604C42.9885 0 42.444 0.544597 42.444 1.21634C42.444 1.88809 42.9885 2.43268 43.6604 2.43268H48.8468L41.0137 10.2661C40.5387 10.7411 40.5387 11.5113 41.0139 11.9863C41.2513 12.2238 41.5627 12.3425 41.8739 12.3425C42.1852 12.3425 42.4966 12.2236 42.7341 11.9862L50.5672 4.15275V9.33924C50.5672 10.011 51.1117 10.5556 51.7836 10.5556C52.4555 10.5556 52.9999 10.011 52.9999 9.33924V1.21634C52.9998 0.544435 52.4552 0 51.7834 0Z" fill="#F92F5F"/>
</g>
<defs>
<clipPath id="clip0">
<rect width="53" height="53" fill="white"/>
</clipPath>
</defs>
</svg>
