<svg width="25" height="25" viewBox="0 0 25 25" fill="none" xmlns="http://www.w3.org/2000/svg">
<path d="M9.21611 4.82447C9.21611 4.66863 9.23776 4.33206 9.28104 3.81693C9.32758 3.30072 9.52238 2.7607 9.87193 2.19363C10.2182 1.62872 10.7799 1.12116 11.5612 0.672049C12.3394 0.225098 13.4638 0 14.9312 0H19.0653V4.50522H16.0383C15.7386 4.50522 15.4593 4.61777 15.2072 4.83962C14.9572 5.06147 14.8284 5.2725 14.8284 5.46838V8.27129H19.0642C19.0198 8.81996 18.9711 9.35349 18.9148 9.86862L18.7471 11.23C18.68 11.69 18.6118 12.1164 18.5447 12.5092H14.7981V25H9.21611V12.5081H6.49329V8.27129H9.21611V4.82447Z" fill="#9C9C9C"/>
</svg>
