<svg width="23" height="24" viewBox="0 0 23 24" fill="none" xmlns="http://www.w3.org/2000/svg">
<path d="M15.8125 0H7.1875C3.21856 0 0 3.3585 0 7.5V16.5C0 20.6415 3.21856 24 7.1875 24H15.8125C19.7814 24 23 20.6415 23 16.5V7.5C23 3.3585 19.7814 0 15.8125 0ZM20.8438 16.5C20.8438 19.395 18.5869 21.75 15.8125 21.75H7.1875C4.41313 21.75 2.15625 19.395 2.15625 16.5V7.5C2.15625 4.605 4.41313 2.25 7.1875 2.25H15.8125C18.5869 2.25 20.8438 4.605 20.8438 7.5V16.5Z" fill="#9C9C9C"/>
<path d="M11.5 6C8.32456 6 5.75 8.6865 5.75 12C5.75 15.3135 8.32456 18 11.5 18C14.6754 18 17.25 15.3135 17.25 12C17.25 8.6865 14.6754 6 11.5 6ZM11.5 15.75C9.51912 15.75 7.90625 14.067 7.90625 12C7.90625 9.9315 9.51912 8.25 11.5 8.25C13.4809 8.25 15.0938 9.9315 15.0938 12C15.0938 14.067 13.4809 15.75 11.5 15.75Z" fill="#9C9C9C"/>
<path d="M17.6607 6.85707C18.3412 6.85707 18.8929 6.28144 18.8929 5.57136C18.8929 4.86128 18.3412 4.28564 17.6607 4.28564C16.9802 4.28564 16.4286 4.86128 16.4286 5.57136C16.4286 6.28144 16.9802 6.85707 17.6607 6.85707Z" fill="#9C9C9C"/>
</svg>
