<svg width="60" height="60" viewBox="0 0 60 60" fill="none" xmlns="http://www.w3.org/2000/svg">
<g clip-path="url(#clip0)">
<path d="M58.0967 56.9867C56.9875 57.87 55.4372 57.8715 54.327 56.9905L54.3097 56.9768C52.3396 55.4136 49.5899 55.416 47.6225 56.9829C46.5116 57.8679 44.9593 57.8682 43.848 56.983C43.8461 56.9816 43.8443 56.9801 43.8424 56.9787C41.8753 55.4159 39.1286 55.4151 37.1594 56.9778L37.1393 56.9938C36.0307 57.8736 34.4819 57.8739 33.3734 56.9942L33.3516 56.977C31.3814 55.4136 28.6316 55.4162 26.66 56.9866C25.5503 57.8701 23.9999 57.8712 22.8897 56.9901L22.8686 56.9734C20.9014 55.412 18.154 55.4125 16.187 56.9741L16.167 56.99C15.0563 57.872 13.5054 57.8708 12.3914 56.9835C10.4243 55.4163 7.67403 55.4136 5.70619 56.9755L5.68334 56.9936C4.57445 57.8737 3.02577 57.8736 1.91687 56.9935C1.40971 56.591 0.672863 56.676 0.27046 57.1828C-0.131944 57.6898 -0.0471042 58.4269 0.459826 58.8291C1.44357 59.6099 2.62242 60.0001 3.80104 60.0001C4.97872 60.0001 6.15605 59.6104 7.13781 58.8312L7.16066 58.8133C8.27143 57.9319 9.82187 57.9329 10.9356 58.8202C12.9035 60.3878 15.6541 60.3899 17.6246 58.8253L17.6445 58.8095C18.7534 57.9291 20.3024 57.9288 21.4111 58.8089L21.4322 58.8255C23.402 60.3891 26.152 60.3871 28.1243 58.8164C29.2335 57.9329 30.7838 57.9316 31.8943 58.8127L31.9161 58.83C33.8828 60.3905 36.6295 60.3905 38.5969 58.8291L38.6171 58.8131C39.7278 57.9315 41.2783 57.9329 42.3873 58.8162C42.3893 58.8178 42.391 58.8192 42.3929 58.8207C44.3636 60.3865 47.1135 60.3848 49.0826 58.8164C50.1918 57.9329 51.7422 57.9316 52.8524 58.8125L52.8696 58.8262C54.8398 60.3895 57.5897 60.3872 59.5568 58.82C60.063 58.4168 60.1465 57.6796 59.7434 57.1734C59.3401 56.6669 58.603 56.5833 58.0967 56.9867Z" fill="white"/>
<path d="M0.87081 15.1049L9.23446 17.3459C8.20185 17.8268 7.24388 18.487 6.41388 19.317C3.68611 22.0448 2.781 26.1492 4.10797 29.7737C4.24554 30.1494 4.56521 30.4288 4.95578 30.5151C5.03968 30.5336 5.12429 30.5426 5.20831 30.5426C5.51568 30.5426 5.81485 30.4216 6.03691 30.1994L9.91201 26.3243C9.90966 26.4158 9.90825 26.5076 9.90825 26.5996C9.90825 30.6735 12.2975 34.4144 15.9948 36.1301C16.1518 36.203 16.3201 36.239 16.4879 36.239C16.7081 36.239 16.9272 36.177 17.1186 36.0549C17.4558 35.8396 17.6599 35.4672 17.6599 35.0671V23.1845C21.4964 28.2866 23.6554 34.4904 23.8023 40.8858C22.269 41.3532 20.7893 41.9936 19.396 42.7994C16.5661 44.4362 14.1419 46.7201 12.3325 49.4384C10.3697 47.9179 7.65519 47.9297 5.70715 49.476L5.6843 49.494C4.57541 50.3742 3.02673 50.374 1.91783 49.4939C1.41067 49.0914 0.673826 49.1765 0.271422 49.6833C-0.130981 50.1902 -0.0461414 50.9273 0.460789 51.3296C1.44453 52.1104 2.62339 52.5006 3.80201 52.5006C4.97969 52.5006 6.15702 52.1108 7.13877 51.3317L7.16162 51.3138C8.27239 50.4323 9.82283 50.4334 10.9365 51.3207C12.9045 52.8882 15.6551 52.8903 17.6255 51.3257L17.6454 51.3099C18.7543 50.4295 20.3034 50.4293 21.412 51.3093L21.4331 51.3259C23.403 52.8895 26.153 52.8875 28.1253 51.3168C29.2344 50.4334 30.7847 50.4321 31.8953 51.3132L31.9171 51.3304C33.8837 52.8909 36.6305 52.8909 38.5979 51.3296L38.618 51.3135C39.7288 50.432 41.2792 50.4334 42.3882 51.3167C42.3902 51.3182 42.392 51.3196 42.3939 51.3211C44.3645 52.8868 47.1144 52.8853 49.0836 51.3168C50.1928 50.4334 51.7431 50.4321 52.8533 51.3129L52.8705 51.3266C54.8407 52.89 57.5906 52.8876 59.5578 51.3204C60.064 50.9172 60.1474 50.18 59.7443 49.6738C59.3411 49.1676 58.6039 49.084 58.0976 49.4874C56.9883 50.3707 55.438 50.3722 54.3278 49.4912L54.3106 49.4775C52.357 47.9275 49.6374 47.9176 47.6736 49.4452C45.8652 46.7261 43.4418 44.4411 40.6121 42.8032C39.4349 42.1218 38.1956 41.5593 36.9147 41.1186V39.0683C36.9147 37.3427 37.0327 35.6013 37.2654 33.8923C37.3528 33.2509 36.9038 32.6603 36.2624 32.573C35.6203 32.4856 35.0305 32.9348 34.9432 33.576C34.6962 35.3895 34.5709 37.2375 34.5709 39.0685V40.4615C33.4557 40.2161 32.3192 40.06 31.1726 39.9968V38.6167C31.1726 29.6906 34.3071 21.0093 40.0011 14.1409H42.3417V15.1523C40.5422 17.6295 39.0222 20.3109 37.8226 23.1289C37.5691 23.7244 37.8464 24.4126 38.4418 24.6661C38.5915 24.7298 38.747 24.7599 38.9002 24.7599C39.3559 24.7599 39.7893 24.4925 39.979 24.0469C40.6598 22.4474 41.4506 20.895 42.3417 19.4028V29.9184C42.3417 30.3185 42.5457 30.6909 42.883 30.9061C43.0743 31.0282 43.2935 31.0902 43.5137 31.0902C43.6815 31.0902 43.8497 31.0542 44.0068 30.9814C47.7042 29.2658 50.0933 25.5249 50.0933 21.4509C50.0933 21.3585 50.0907 21.2664 50.0883 21.1743L53.9647 25.0506C54.1869 25.2728 54.4859 25.3939 54.7933 25.3939C54.8773 25.3939 54.9619 25.3848 55.0458 25.3663C55.4364 25.2801 55.7562 25.0006 55.8936 24.6249C57.2206 21.0005 56.3156 16.8961 53.5877 14.1684C52.7577 13.3384 51.7997 12.6782 50.7671 12.1973L59.1308 9.95629C59.5172 9.85281 59.8241 9.55927 59.9447 9.17785C60.0654 8.79642 59.9832 8.37983 59.7266 8.07293C57.275 5.13986 53.306 3.88355 49.6159 4.87257C47.8049 5.35782 46.207 6.34567 44.9707 7.67018C44.5552 5.89932 43.6595 4.24025 42.3285 2.9093C39.6008 0.181531 35.4965 -0.72335 31.8718 0.603387C31.4963 0.740959 31.2167 1.06063 31.1305 1.4512C31.0443 1.84189 31.1632 2.24956 31.4461 2.53244L35.3635 6.44984C35.2926 6.44844 35.2217 6.44703 35.1506 6.44703C31.4173 6.44703 27.9677 8.47346 26.1264 11.6768C25.7062 11.6244 25.2805 11.5959 24.8507 11.5959C24.7793 11.5959 24.708 11.5984 24.6368 11.5998L28.5553 7.68119C28.8382 7.39831 28.9573 6.99064 28.8709 6.59995C28.7848 6.20938 28.5052 5.88959 28.1296 5.75214C24.5049 4.42517 20.4006 5.33028 17.673 8.05805C16.3419 9.38901 15.4463 11.0482 15.0308 12.819C13.7945 11.4945 12.1966 10.5067 10.3855 10.0213C6.69547 9.03219 2.72651 10.2884 0.274938 13.2216C0.018426 13.5285 -0.0639531 13.9451 0.0568618 14.3265C0.177442 14.7079 0.484343 15.0015 0.87081 15.1049ZM5.87824 27.0437C5.6795 24.8287 6.45864 22.5865 8.07107 20.9742C9.51839 19.5269 11.4726 18.7509 13.4597 18.7509C13.6866 18.7509 13.9135 18.761 14.1405 18.7814L5.87824 27.0437ZM12.252 26.5996C12.252 25.4392 12.4924 24.3225 12.9607 23.2757L15.3165 20.9201V32.9705C13.4118 31.4412 12.252 29.101 12.252 26.5996ZM18.436 20.3928L17.66 19.4688V19.2895H20.8823C25.7631 25.1103 28.5535 32.4236 28.8079 39.9976C27.9066 40.0482 27.0118 40.1565 26.1285 40.3201C25.8469 33.029 23.1415 25.996 18.436 20.3928ZM45.2873 50.1119C44.7758 50.0347 44.2791 49.8264 43.8487 49.4835C43.8468 49.4821 43.8451 49.4806 43.8432 49.4792C41.876 47.9163 39.1293 47.9155 37.1602 49.4782L37.14 49.4943C36.0315 50.3742 34.4827 50.3742 33.3741 49.4946L33.3523 49.4774C31.3821 47.9141 28.6323 47.9166 26.6607 49.487C25.551 50.3706 24.0006 50.3717 22.8904 49.4905L22.8693 49.4739C20.9022 47.9124 18.1547 47.9129 16.1877 49.4746L16.1678 49.4904C15.7319 49.8366 15.228 50.0446 14.7096 50.1185C18.254 45.1987 23.8579 42.3054 30.0006 42.3054C36.1418 42.3055 41.743 45.1959 45.2873 50.1119ZM29.6203 30.6442C28.3911 26.5704 26.4511 22.7202 23.8717 19.2895H33.2281C33.4297 19.2895 33.6239 19.2375 33.7949 19.143C31.8342 22.7438 30.4252 26.6238 29.6203 30.6442ZM44.6854 27.8215V15.08C46.5899 16.6092 47.7497 18.9493 47.7497 21.4508C47.7497 23.9522 46.5899 26.2923 44.6854 27.8215ZM54.1235 21.8948L48.9722 16.7435C48.3765 15.559 47.5598 14.4909 46.5641 13.6028C48.5435 13.6085 50.4888 14.3834 51.9306 15.8255C53.5432 17.4378 54.3222 19.6798 54.1235 21.8948ZM50.2226 7.13606C50.8603 6.96521 51.5088 6.88225 52.1523 6.88225C53.6947 6.88225 55.2084 7.35859 56.4733 8.24179L45.3623 11.219C46.2889 9.23866 48.0565 7.71647 50.2226 7.13606ZM40.6714 4.56614C42.284 6.17845 43.063 8.42061 42.8642 10.6356L34.602 2.37331C36.8167 2.17445 39.059 2.95371 40.6714 4.56614ZM35.1508 8.79032C36.2768 8.79032 37.3621 9.01965 38.3811 9.46682L40.7112 11.797H28.874C30.385 9.92758 32.6886 8.79032 35.1508 8.79032ZM37.0157 14.1406C36.0647 15.4043 35.1909 16.7184 34.3978 18.0761C34.3924 17.9221 34.3579 17.7685 34.2911 17.6245C33.6611 16.2667 32.7549 15.0876 31.6589 14.1406H37.0157ZM31.1277 16.9459H18.5741C20.0852 15.0763 22.3888 13.9392 24.8509 13.9392C27.313 13.9392 29.6167 15.0764 31.1277 16.9459ZM19.3303 9.71501C20.9428 8.10246 23.1848 7.32344 25.3997 7.52218L20.2428 12.6791C19.061 13.2649 17.9948 14.0721 17.1073 15.0585C17.1189 13.0872 17.8939 11.1513 19.3303 9.71501ZM9.77912 12.2849C11.9451 12.8653 13.7127 14.3876 14.6395 16.368L3.52839 13.3908C5.32104 12.139 7.61312 11.7044 9.77912 12.2849Z" fill="white"/>
<path d="M37.1623 27.3949C36.8541 27.3949 36.5517 27.5203 36.3338 27.7383C36.1158 27.9562 35.9904 28.2586 35.9904 28.5668C35.9904 28.8761 36.1157 29.1773 36.3338 29.3953C36.5517 29.6144 36.8541 29.7386 37.1623 29.7386C37.4717 29.7386 37.7728 29.6144 37.9907 29.3953C38.2098 29.1773 38.3342 28.8761 38.3342 28.5668C38.3342 28.2586 38.2098 27.9562 37.9907 27.7383C37.7728 27.5203 37.4716 27.3949 37.1623 27.3949Z" fill="white"/>
</g>
<defs>
<clipPath id="clip0">
<rect width="60" height="60" fill="white"/>
</clipPath>
</defs>
</svg>
