<svg width="229" height="122" viewBox="0 0 229 122" fill="none" xmlns="http://www.w3.org/2000/svg">
<path d="M59.9809 46.0829V91.0164C59.9809 100.856 57.2145 108.392 51.6817 113.623C46.1489 118.917 38.5098 121.564 28.7645 121.564C23.1687 121.564 18.0446 120.785 13.392 119.228C8.73936 117.734 4.77836 115.585 1.50895 112.783L7.45046 101.572C13.4234 106.368 20.4023 108.766 28.3872 108.766C33.92 108.766 38.0068 107.395 40.6475 104.655C43.351 101.853 44.7028 97.5556 44.7028 91.7637V87.7468C40.3017 93.1027 34.0772 95.7806 26.0295 95.7806C17.6673 95.7806 11.2229 93.4452 6.69599 88.7744C2.232 84.0413 0 77.253 0 68.4095V46.0829H15.2782V67.4754C15.2782 72.5821 16.5042 76.4434 18.9562 79.059C21.4083 81.6747 24.8663 82.9825 29.3303 82.9825C34.0458 82.9825 37.7867 81.6124 40.5532 78.8722C43.3196 76.132 44.7028 71.9905 44.7028 66.4478V46.0829H59.9809Z" fill="#F35050"/>
<path d="M97.6252 112.596C90.7721 112.596 84.5791 111.132 79.0462 108.205C73.5763 105.278 69.2695 101.261 66.1258 96.1543C63.045 90.9853 61.5046 85.1934 61.5046 78.7788C61.5046 72.3642 63.045 66.6035 66.1258 61.4967C69.2695 56.3276 73.5763 52.2796 79.0462 49.3525C84.5791 46.4254 90.7721 44.9619 97.6252 44.9619C104.478 44.9619 110.64 46.4254 116.11 49.3525C121.58 52.2796 125.887 56.3276 129.03 61.4967C132.174 66.6035 133.746 72.3642 133.746 78.7788C133.746 85.1934 132.174 90.9853 129.03 96.1543C125.887 101.261 121.58 105.278 116.11 108.205C110.64 111.132 104.478 112.596 97.6252 112.596ZM97.6252 99.7042C101.523 99.7042 105.044 98.8323 108.188 97.0885C111.332 95.2824 113.784 92.7913 115.544 89.6151C117.367 86.439 118.279 82.8269 118.279 78.7788C118.279 74.7307 117.367 71.1186 115.544 67.9424C113.784 64.7663 111.332 62.3063 108.188 60.5625C105.044 58.7565 101.523 57.8534 97.6252 57.8534C93.7271 57.8534 90.2062 58.7565 87.0626 60.5625C83.9189 62.3063 81.4354 64.7663 79.6121 67.9424C77.8516 71.1186 76.9714 74.7307 76.9714 78.7788C76.9714 82.8269 77.8516 86.439 79.6121 89.6151C81.4354 92.7913 83.9189 95.2824 87.0626 97.0885C90.2062 98.8323 93.7271 99.7042 97.6252 99.7042Z" fill="#F35050"/>
<path d="M194.835 46.0829V111.475H180.028V103.534C175.501 109.575 168.837 112.596 160.035 112.596C152.238 112.596 146.14 110.167 141.739 105.309C137.4 100.389 135.231 93.4141 135.231 84.3838V46.0829H150.509V83.9167C150.509 89.1481 151.735 93.1027 154.187 95.7806C156.702 98.3963 160.098 99.7042 164.373 99.7042C168.963 99.7042 172.641 98.3029 175.407 95.5004C178.174 92.6356 179.557 88.4319 179.557 82.8891V46.0829H194.835Z" fill="#F35050"/>
<path d="M210.451 11.2202C209.971 11.9519 209.396 12.3973 208.724 12.5563C208.085 12.7154 207.462 12.6677 206.854 12.4132C206.247 12.1587 205.735 11.7451 205.32 11.1725C204.936 10.568 204.776 9.88402 204.84 9.1205C204.872 8.61148 205 8.05475 205.224 7.4503C205.448 6.84584 205.719 6.2732 206.039 5.73237C206.391 5.15973 206.758 4.63481 207.142 4.15761C207.557 3.6486 207.973 3.21912 208.389 2.86917C209.156 2.26471 210.019 1.73979 210.978 1.29441C211.969 0.84902 212.992 0.51498 214.047 0.292287C215.134 0.0695927 216.205 -0.0258481 217.26 0.00596484C218.347 0.0377797 219.354 0.196848 220.281 0.483168C222.839 1.2785 224.821 2.53513 226.227 4.25305C227.634 5.97097 228.337 8.19791 228.337 10.9339C228.337 12.2382 228.209 13.4153 227.954 14.4651C227.73 15.4832 227.314 16.4694 226.707 17.4238C226.131 18.3782 225.348 19.3485 224.357 20.3347C223.398 21.3209 222.199 22.4026 220.761 23.5797C220.281 23.9933 219.786 24.4068 219.274 24.8204C218.763 25.234 218.251 25.6475 217.74 26.0611C217.58 26.1884 217.276 26.3793 216.828 26.6338C216.381 26.8883 215.981 27.1428 215.63 27.3973C215.278 27.6518 215.07 27.8904 215.006 28.1131C214.942 28.3358 215.198 28.463 215.773 28.4948C216.477 28.5585 217.036 28.5744 217.452 28.5426C217.867 28.5107 218.427 28.4948 219.13 28.4948C219.961 28.4948 220.777 28.4789 221.576 28.4471C222.375 28.4153 223.174 28.4312 223.973 28.4948C224.293 28.5267 224.645 28.5426 225.028 28.5426C225.412 28.5107 225.796 28.5107 226.179 28.5426C226.563 28.5426 226.931 28.5903 227.282 28.6857C227.634 28.7493 227.938 28.8925 228.193 29.1152C228.449 29.3379 228.641 29.6401 228.769 30.0219C228.897 30.4036 228.961 30.8172 228.961 31.2626C228.993 31.6762 228.961 32.0898 228.865 32.5033C228.769 32.8851 228.609 33.1873 228.385 33.41C227.97 33.8872 227.458 34.1258 226.851 34.1258C226.243 34.094 225.668 34.0781 225.124 34.0781H207.909C207.589 34.0781 207.238 34.094 206.854 34.1258C206.502 34.1576 206.183 34.1258 205.895 34.0304C205.32 33.8713 205.032 33.5691 205.032 33.1237C205.064 32.6783 205.08 32.217 205.08 31.7398C205.08 30.9445 205.272 30.2128 205.655 29.5447C206.039 28.8448 206.518 28.2085 207.094 27.6359C207.701 27.0314 208.341 26.4747 209.012 25.9657C209.683 25.4567 210.307 24.9636 210.882 24.4864C211.713 23.7547 212.609 23.0229 213.568 22.2912C214.527 21.5595 215.438 20.8278 216.301 20.0961C217.42 19.1735 218.363 18.3305 219.13 17.5669C219.929 16.8034 220.569 16.0876 221.048 15.4195C221.528 14.7515 221.88 14.0993 222.103 13.463C222.327 12.7949 222.439 12.095 222.439 11.3633C222.439 9.74086 221.943 8.50014 220.952 7.64118C219.961 6.7504 218.699 6.30501 217.164 6.30501C216.045 6.30501 214.99 6.54361 213.999 7.02081C213.04 7.49802 212.241 8.19791 211.602 9.1205C211.41 9.47044 211.218 9.8363 211.026 10.2181C210.866 10.568 210.674 10.902 210.451 11.2202Z" fill="#F35050"/>
</svg>
