<svg width="107" height="107" viewBox="0 0 107 107" fill="none" xmlns="http://www.w3.org/2000/svg">
<g clip-path="url(#clip0)">
<path d="M31.0254 50.4365L32.4114 52.3506L27.2203 54.3614C26.5617 54.6165 26.2822 55.4001 26.638 56.0164C26.9178 56.5009 27.5163 56.7227 28.0542 56.5144L33.7886 54.2931C34.9288 53.8515 35.3372 52.4524 34.6232 51.4687L33.1395 49.4195L33.5857 49.041L38.332 50.6498C39.1005 50.9101 39.941 50.6468 40.4235 49.9947L41.259 48.8657C41.848 48.0696 41.7108 46.953 40.9455 46.3239L38.375 44.2091L37.9295 42.9945L42.7453 41.4706L43.0003 41.9122C43.4132 42.6274 44.2308 42.9812 45.0353 42.7926L55.3934 40.3593C56.014 40.2136 56.399 39.5921 56.2532 38.9714C56.1078 38.3513 55.4862 37.9658 54.8652 38.1116L44.8326 40.4684L44.5641 40.0035C44.1313 39.2538 43.2181 38.8992 42.3928 39.1603L36.7846 40.9351C35.776 41.2542 35.2351 42.354 35.5998 43.3483C36.6065 46.0935 35.966 45.2175 39.1487 47.8359L38.7624 48.3579C32.6672 46.2919 33.4465 46.1316 31.3282 47.9282C30.5924 48.553 30.4583 49.6538 31.0254 50.4365Z" fill="white"/>
<path d="M89.5329 54.0296L89.8938 50.4998L91.5957 49.5172C92.434 49.0332 92.7599 48.0054 92.3537 47.1268L90.0784 42.2038C89.8599 41.7314 89.4496 41.369 88.9529 41.2114C88.0073 40.9115 87.4069 41.4047 86.5204 41.9165L85.1387 40.4022C85.6627 39.8432 85.8018 38.9975 85.4339 38.2814L84.6729 36.801C84.0947 35.6795 83.0107 35.7892 82.0833 35.744L82.2454 34.6364L83.5915 34.7198C84.4141 34.7708 85.1817 34.2642 85.4579 33.4882L85.8158 32.4844C86.1204 31.6295 85.7672 30.6856 84.9773 30.2404L83.6424 29.4877L83.1184 28.2613C82.8425 27.6144 82.2358 27.1842 81.5351 27.1364L76.8685 26.8175C76.1028 26.7653 75.3729 27.1986 75.0522 27.896L74.3325 29.4614C73.2848 29.3543 72.3798 29.1168 71.6336 30.0027L67.2437 35.219L59.2913 37.0817C58.6705 37.2272 58.2852 37.8484 58.4306 38.4691C58.576 39.0904 59.197 39.4752 59.8179 39.33L67.916 37.433C68.3033 37.3421 68.6577 37.1245 68.9142 36.8201L73.2469 31.6715L74.4172 31.7911C75.2087 31.8721 75.9638 31.4409 76.2959 30.7179L77.0203 29.1423L81.103 29.4212C81.9143 31.3204 81.6527 31.0168 83.5135 32.0657L83.3964 32.3944L81.9758 32.3063C81.0185 32.2469 80.1597 32.9438 80.0206 33.8929L79.7271 35.8998C79.5686 36.9827 80.379 37.9726 81.4765 38.0261L82.7382 38.0876L83.2077 39.0008C82.4857 39.6808 82.4142 40.841 83.1117 41.6062L85.0586 43.7397C85.6429 44.3798 86.6115 44.5299 87.3618 44.0967L88.1891 43.6191L90.0858 47.7229L88.5404 48.6151C88.0247 48.9129 87.6807 49.4442 87.6203 50.0362L87.2649 53.5126L84.0676 54.657L79.0053 52.155L77.5545 50.7077C76.9605 50.1151 76.0382 49.9944 75.3116 50.4139L74.2534 51.0248C73.6829 51.3542 73.3266 51.9682 73.3236 52.6268L73.3153 54.4971L69.1632 57.4525L67.673 56.3377C67.1083 55.915 66.338 55.85 65.7108 56.1716C63.5461 57.281 63.7742 57.0777 63.3056 59.6396L61.3649 60.0587L59.5681 59.5772L58.7246 56.8971C58.2799 55.4841 56.4366 55.1341 55.505 56.286L51.129 61.6972C50.7638 62.1487 50.6302 62.7546 50.7712 63.3177L51.2161 65.095L49.4409 66.2557C49.1117 66.0269 48.5458 65.5424 47.6527 65.7385C46.6992 65.9479 46.433 66.6387 45.9183 67.5151L45.5694 66.424C45.1519 65.1161 43.5057 64.6958 42.5118 65.648L39.6601 68.381C39.0403 68.9752 38.9073 69.9094 39.3365 70.6528L40.2556 72.2446L39.1387 72.9383L35.7113 70.4982C35.3749 70.2585 34.9623 70.1367 34.5489 70.1551L31.9289 70.2732C31.4657 70.2944 31.0296 70.486 30.7013 70.8132L26.6873 74.8098L21.4543 71.6887L17.2142 60.7139L23.8033 58.2526C24.4006 58.0296 24.7039 57.3645 24.4808 56.7672C24.2574 56.1702 23.5926 55.8667 22.9954 56.0897L16.3306 58.5794C15.1716 59.0281 14.5933 60.3362 15.0411 61.4957C19.657 73.4438 19.3303 72.6317 19.4567 72.8506C19.6486 73.183 19.9244 73.465 20.2557 73.6622L25.5403 76.8139C26.4266 77.3423 27.556 77.2029 28.287 76.4751L32.2072 72.5718L34.4978 72.4686L38.0432 74.9927C38.6557 75.4286 39.4641 75.454 40.1027 75.0574L41.8434 73.9762C42.7008 73.4433 42.9771 72.3412 42.4723 71.467L41.5119 69.8035L43.5891 67.813L44.0251 69.1762C44.2483 69.874 44.863 70.3771 45.5909 70.4578C46.3189 70.5388 47.0289 70.1828 47.3998 69.5512L48.1931 68.2002L48.3717 68.3243C48.997 68.759 49.813 68.7704 50.4506 68.3536L52.7474 66.852C53.4097 66.4189 53.7255 65.612 53.5333 64.8442L53.0651 62.9742L56.7732 58.3887L57.4394 60.5051C57.6312 61.1147 58.1142 61.5777 58.7318 61.7432C61.8252 62.5721 60.7688 62.5491 64.0852 61.8329C64.8225 61.6741 65.3867 61.0921 65.5225 60.3498L65.8228 58.708L66.514 58.3537L68.0425 59.4971C68.6922 59.9833 69.5731 59.9939 70.2346 59.5231L74.8418 56.2443C75.3283 55.898 75.6205 55.3349 75.6232 54.7375L75.6314 52.8948L76.1678 52.5851C77.5286 53.9426 77.5629 54.0172 77.9162 54.1916L83.2153 56.8106C83.6649 57.033 84.1936 57.0637 84.6664 56.8947L88.3105 55.5904C88.9804 55.351 89.4605 54.7381 89.5329 54.0296Z" fill="white"/>
</g>
<defs>
<clipPath id="clip0">
<rect width="78.3093" height="78.3093" fill="white" transform="translate(67.8179) rotate(60)"/>
</clipPath>
</defs>
</svg>
