<svg width="62" height="62" viewBox="0 0 62 62" fill="none" xmlns="http://www.w3.org/2000/svg">
<g clip-path="url(#clip0)">
<path d="M53.6302 45.7798C52.3194 44.5815 51.5675 42.8824 51.5675 41.1183V29.0624C51.5675 28.3938 51.0253 27.8515 50.3565 27.8515C49.6877 27.8515 49.1456 28.3938 49.1456 29.0624V41.1183C49.1456 43.5608 50.1846 45.9113 51.9961 47.5674C52.6473 48.1626 53.0206 49.0094 53.0206 49.891C53.0206 51.6269 51.6083 53.0392 49.8724 53.0392H12.0907C10.3548 53.0392 8.94251 51.6269 8.94251 49.891C8.94251 49.0095 9.31584 48.1627 9.96696 47.5674C11.7785 45.9113 12.8175 43.5608 12.8175 41.1183V27.1249C12.8175 17.1092 20.9659 8.96083 30.9816 8.96083C33.7363 8.96083 36.4495 9.58725 38.9067 10.7787C38.0527 12.1507 37.5574 13.7683 37.5574 15.4999C37.5574 20.441 41.5772 24.4609 46.5183 24.4609C51.4595 24.4609 55.4793 20.441 55.4793 15.4999C55.4793 10.5588 51.4595 6.53895 46.5183 6.53895C44.2027 6.53895 42.0892 7.42197 40.4972 8.86892C38.6922 7.92742 36.7557 7.26164 34.7561 6.88976C35.2022 6.19347 35.4621 5.36689 35.4621 4.48036C35.4621 2.00992 33.4522 0 30.9816 0C28.5111 0 26.5011 2.00992 26.5011 4.48036C26.5011 5.36592 26.7604 6.19154 27.2055 6.88746C17.6517 8.66573 10.3956 17.0634 10.3956 27.1249V41.1183C10.3956 42.8824 9.64389 44.5815 8.33292 45.7798C7.1812 46.8326 6.52063 48.331 6.52063 49.8908C6.52063 52.9622 9.0194 55.4609 12.0907 55.4609H23.3268C23.91 59.1611 27.1202 62 30.9816 62C34.8431 62 38.0533 59.1611 38.6365 55.4609H49.8725C52.9438 55.4609 55.4426 52.9622 55.4426 49.8908C55.4426 48.331 54.782 46.8326 53.6302 45.7798ZM46.5182 8.96083C50.1239 8.96083 53.0573 11.8943 53.0573 15.4999C53.0573 19.1055 50.1239 22.039 46.5182 22.039C42.9125 22.039 39.9791 19.1055 39.9791 15.4999C39.9791 11.8943 42.9125 8.96083 46.5182 8.96083ZM30.9816 2.42176C32.1168 2.42176 33.0402 3.34522 33.0402 4.48024C33.0402 5.61537 32.1168 6.53883 30.9816 6.53883C29.8465 6.53883 28.923 5.61537 28.923 4.48024C28.923 3.34522 29.8465 2.42176 30.9816 2.42176ZM30.9816 59.5781C28.4603 59.5781 26.344 57.8172 25.794 55.4609H36.1693C35.6193 57.8172 33.5029 59.5781 30.9816 59.5781Z" fill="white"/>
<path d="M17.4191 25.8888C16.7503 25.8888 16.2082 26.4311 16.2082 27.0997V27.1249C16.2082 27.7936 16.7503 28.3359 17.4191 28.3359C18.0879 28.3359 18.6301 27.7936 18.6301 27.1249V27.0997C18.6301 26.4311 18.0879 25.8888 17.4191 25.8888Z" fill="white"/>
<path d="M30.9816 12.3514C25.0394 12.3514 19.6993 15.8859 17.3772 21.3562C17.1159 21.9718 17.4031 22.6827 18.0187 22.944C18.173 23.0095 18.3335 23.0407 18.4913 23.0407C18.9626 23.0407 19.4107 22.7637 19.6066 22.3026C21.5482 17.7287 26.0132 14.7733 30.9816 14.7733C31.6504 14.7733 32.1926 14.2311 32.1926 13.5624C32.1926 12.8937 31.6504 12.3514 30.9816 12.3514Z" fill="white"/>
<path d="M46.9451 11.5758C46.4928 11.3888 45.9718 11.492 45.6254 11.8383L44.2328 13.2309C43.76 13.7037 43.76 14.4705 44.2328 14.9435C44.5155 15.226 44.9033 15.3401 45.2707 15.2845V17.4778C45.2707 18.1464 45.8129 18.6887 46.4817 18.6887C47.1504 18.6887 47.6926 18.1464 47.6926 17.4778V12.6946C47.6926 12.2047 47.3975 11.7632 46.9451 11.5758Z" fill="white"/>
</g>
<defs>
<clipPath id="clip0">
<rect width="62" height="62" fill="white"/>
</clipPath>
</defs>
</svg>
