<svg width="30" height="30" viewBox="0 0 30 30" fill="none" xmlns="http://www.w3.org/2000/svg">
<path d="M15.0593 0.000228882L15.0213 0C8.871 0 3.86719 5.00427 3.86719 11.1555C3.86719 14.528 5.5909 17.1581 7.51144 19.7775L15.0066 30L22.5341 19.7775C24.4547 17.1584 26.1784 14.528 26.1784 11.1557C26.1784 5.01663 21.194 0.0196839 15.0593 0.000228882ZM21.1166 18.7381C21.1166 18.7381 15.2946 26.7002 15.0304 27.0596L8.92891 18.7381C7.1212 16.2726 5.625 14.0005 5.625 11.1555C5.625 5.98526 9.82109 1.77681 14.9863 1.75781H15.0227C20.2048 1.75804 24.4205 5.97382 24.4205 11.1557C24.4205 14.0005 22.9243 16.2728 21.1166 18.7381Z" fill="#828282"/>
<path d="M15.0227 4.39453C11.2946 4.39453 8.26172 7.42744 8.26172 11.1557C8.26172 14.8837 11.2946 17.9166 15.0227 17.9166C18.7509 17.9166 21.7838 14.8837 21.7838 11.1557C21.7838 7.42744 18.7509 4.39453 15.0227 4.39453ZM15.0227 16.1588C12.2639 16.1588 10.0193 13.9144 10.0193 11.1555C10.0193 8.39676 12.2639 6.15211 15.0227 6.15211C17.7816 6.15211 20.026 8.39676 20.026 11.1557C20.026 13.9144 17.7816 16.1588 15.0227 16.1588Z" fill="#828282"/>
</svg>
