<svg width="89" height="89" viewBox="0 0 89 89" fill="none" xmlns="http://www.w3.org/2000/svg">
<g clip-path="url(#clip0)">
<path d="M57.2605 58.951C57.7704 58.1872 57.9741 57.221 57.7241 56.2609L56.2865 47.5053C56.2356 47.3133 56.1631 47.1323 56.0835 46.9566L75.1821 33.0573L57.9285 9.34961L22.9582 34.7997L33.974 49.9405C32.4248 51.0617 24.3581 56.8778 24.3581 56.8778L32.8496 68.5458L54.3387 61.1319C55.659 60.788 56.6879 59.9582 57.2605 58.951ZM57.4453 12.4216L72.1103 32.5724L41.9671 54.5095C41.8316 53.8587 41.9082 53.1033 42.3757 52.2085L48.0034 48.1128C49.9673 46.6836 51.6987 45.7165 50.2302 43.6987C48.7617 41.6808 45.9791 41.2036 44.0153 42.6328L35.7535 48.6454L26.0299 35.2846L57.4453 12.4216Z" fill="white"/>
<path d="M32.7856 71.9282L21.8671 56.9254L16.9534 60.5014L27.8719 75.5042L32.7856 71.9282Z" fill="white"/>
</g>
<defs>
<clipPath id="clip0">
<rect width="63.2296" height="63.2296" fill="white" transform="translate(51.1241) rotate(53.9543)"/>
</clipPath>
</defs>
</svg>
