<svg width="65" height="65" viewBox="0 0 65 65" fill="none" xmlns="http://www.w3.org/2000/svg">
<g clip-path="url(#clip0)">
<path d="M46.3719 0H7.9574C3.83438 0.00533535 0.49325 3.34646 0.487915 7.46949V45.7954C0.49325 49.9184 3.83438 53.2596 7.9574 53.2649H19.6952V51.1308H7.9574C5.01229 51.1273 2.62552 48.7405 2.62205 45.7954V27.7438H9.47477C10.1071 27.6975 10.5824 27.1474 10.5361 26.5149C10.5272 26.393 10.4989 26.2733 10.4522 26.1603C9.50385 24.0021 10.4845 21.4838 12.6426 20.5355C14.8008 19.5871 17.3191 20.5678 18.2674 22.7259C18.7483 23.8202 18.7483 25.066 18.2674 26.1603C18.0039 26.7117 18.2373 27.3723 18.7887 27.6359C18.9313 27.7041 19.0869 27.7409 19.2449 27.7439H26.0976V34.1464C25.7451 34.0863 25.3881 34.0567 25.0305 34.0578C21.4945 34.0566 18.6272 36.9221 18.6258 40.4579C18.6249 43.0054 20.1344 45.311 22.4695 46.3291L23.3232 44.3742C21.1616 43.4339 20.1715 40.9193 21.1117 38.7577C21.7901 37.198 23.3297 36.1901 25.0305 36.1919C25.6186 36.1918 26.2002 36.3146 26.7378 36.5526C27.2779 36.7883 27.9069 36.5415 28.1426 36.0015C28.2013 35.867 28.2316 35.7219 28.2317 35.5752V27.7438H33.6578C33.5971 28.0962 33.5667 28.4533 33.5671 28.8109C33.5735 31.8512 35.7115 34.4703 38.689 35.0852L39.1158 32.9949C37.1308 32.5842 35.7056 30.8379 35.7012 28.8109C35.7011 28.2228 35.8239 27.6412 36.0619 27.1036C36.2976 26.5635 36.0508 25.9345 35.5107 25.6988C35.3763 25.6401 35.2312 25.6098 35.0844 25.6097H28.2317V20.1836C28.5841 20.2443 28.9412 20.2747 29.2988 20.2743C32.8348 20.2743 35.7012 17.4079 35.7012 13.8719C35.7012 10.3359 32.8348 7.46949 29.2988 7.46949C28.9412 7.46909 28.5841 7.4995 28.2317 7.56019V2.13414H46.3719C49.317 2.13761 51.7038 4.52437 51.7073 7.46949V25.6097H44.8545C44.2652 25.6099 43.7877 26.088 43.788 26.6773C43.7881 26.824 43.8184 26.9691 43.8771 27.1036C44.1151 27.6412 44.2379 28.2228 44.2378 28.8109H46.3719C46.3723 28.4533 46.3419 28.0962 46.2812 27.7438H52.7743C53.3636 27.7438 53.8414 27.266 53.8414 26.6767V7.46949C53.8361 3.34646 50.4949 0.00533535 46.3719 0ZM29.2988 9.60362C31.6561 9.60362 33.5671 11.5146 33.5671 13.8719C33.5671 16.2292 31.6561 18.1402 29.2988 18.1402C28.7107 18.1403 28.1292 18.0175 27.5915 17.7795C27.0514 17.5438 26.4224 17.7906 26.1867 18.3307C26.128 18.4651 26.0977 18.6102 26.0976 18.7569V25.5211H20.679C20.7325 25.1976 20.7602 24.8705 20.7622 24.5426C20.7622 24.5234 20.7622 24.5063 20.7622 24.4871C20.7622 24.4679 20.7622 24.4647 20.7622 24.454C20.7622 20.918 17.8958 18.0516 14.3598 18.0516C10.8238 18.0516 7.9574 20.918 7.9574 24.454C7.9574 24.4647 7.9574 24.4764 7.9574 24.4871C7.9574 24.4978 7.9574 24.5234 7.9574 24.5426C7.9594 24.8705 7.98715 25.1976 8.04063 25.5211H2.62205V7.46949C2.62552 4.52437 5.01229 2.13761 7.9574 2.13414H26.0976V8.98686C26.0979 9.57615 26.5759 10.0537 27.1652 10.0534C27.3119 10.0533 27.457 10.023 27.5915 9.96429C28.1292 9.72634 28.7107 9.60349 29.2988 9.60362Z" fill="#F92F5F"/>
<path d="M62.8208 45.8648L53.8499 39.6875L50.4043 30.4819C50.1988 29.9295 49.5844 29.6485 49.0321 29.854C49.0123 29.8614 48.9927 29.8694 48.9734 29.8779L42.0374 32.9457C41.5175 33.1753 41.2689 33.7722 41.4719 34.3031C41.5871 34.6018 41.6949 34.8281 41.8091 35.0628C41.9233 35.2976 42.0289 35.5174 42.158 35.8642C42.9863 38.0774 41.8711 40.5442 39.6621 41.3841C37.4542 42.2099 34.9949 41.0896 34.169 38.8816C33.9619 38.3278 33.8721 37.737 33.9053 37.1468C33.9363 36.5583 33.4842 36.0561 32.8957 36.0252C32.7482 36.0174 32.6008 36.0404 32.4626 36.0925L25.0486 38.8851C24.4982 39.0925 24.2194 39.7063 24.4255 40.2573L27.0867 47.3672C26.7339 47.4315 26.3875 47.5271 26.0517 47.6532C22.7311 48.8906 21.0425 52.5856 22.2799 55.9061C23.5173 59.2267 27.2122 60.9154 30.5328 59.678C30.8747 59.5506 31.2051 59.3943 31.5204 59.2106L33.4283 64.3069C33.6351 64.8588 34.25 65.1386 34.8019 64.9318C34.8026 64.9315 34.8031 64.9313 34.8038 64.9311L45.3763 60.9478C46.0404 62.3752 47.2625 63.4665 48.7557 63.9654L49.4301 61.938C48.5506 61.6416 47.8196 61.017 47.3899 60.1944L50.6071 58.9833C51.6639 61.9558 54.4791 63.9397 57.6337 63.9356V61.8014C54.6946 61.7834 52.3164 59.4052 52.2984 56.4661C52.2984 56.183 52.1858 55.9117 51.9857 55.7117L48.2702 51.9961C47.7193 51.4405 47.6572 50.5657 48.124 49.9378C48.3958 49.5708 48.8155 49.3422 49.2711 49.3125C49.7274 49.274 50.1768 49.4421 50.4961 49.7702L57.9464 57.2205L59.4552 55.7117L57.2507 53.5071C57.7938 51.8829 57.7603 50.121 57.1557 48.5186L55.156 43.1779L61.6043 47.6179C62.459 48.2179 62.9683 49.1965 62.9691 50.2408V64.0241H65.1032V50.2408C65.1018 48.4971 64.2498 46.8638 62.8208 45.8648ZM55.1571 49.2666C55.4518 50.0501 55.5586 50.8917 55.4687 51.724L52.0049 48.2614C50.5752 46.7951 48.2276 46.7656 46.7614 48.1952C45.2951 49.625 45.2656 51.9725 46.6952 53.4388C46.7169 53.4611 46.739 53.4832 46.7614 53.505L50.1365 56.8801L35.0567 62.5601L33.0228 57.1255C32.8963 56.7878 32.6076 56.537 32.2556 56.4586C32.1796 56.4418 32.102 56.4331 32.0241 56.433C31.7449 56.4327 31.4768 56.542 31.2771 56.7371C29.5637 58.356 26.8621 58.2793 25.2432 56.5657C23.6244 54.8523 23.7011 52.1507 25.4146 50.5318C25.8177 50.151 26.291 49.8525 26.8082 49.6527C27.148 49.5268 27.5028 49.4465 27.8636 49.4137C28.0855 49.3865 28.3093 49.379 28.5326 49.3913C29.1211 49.4221 29.6233 48.9701 29.6541 48.3816C29.6618 48.2352 29.6393 48.0889 29.5879 47.9518L26.8008 40.5101L31.8821 38.5968C32.5491 42.0693 35.9047 44.3436 39.3772 43.6769C39.732 43.6087 40.0804 43.5107 40.4187 43.3837C43.7276 42.1283 45.4 38.4353 44.1609 35.1203C44.0627 34.8578 43.9742 34.6497 43.8888 34.4641L48.7973 32.2904L55.1571 49.2666Z" fill="#F92F5F"/>
</g>
<defs>
<clipPath id="clip0">
<rect width="65" height="65" fill="white"/>
</clipPath>
</defs>
</svg>
