<svg width="65" height="65" viewBox="0 0 65 65" fill="none" xmlns="http://www.w3.org/2000/svg">
<path d="M13.6152 17.3334C9.97653 17.3334 7.0271 14.4228 7.0271 10.8332C7.0271 7.24306 9.97653 4.33337 13.6152 4.33337C17.2533 4.33337 20.2028 7.24306 20.2028 10.8332C20.1993 14.4211 17.2516 17.3296 13.6152 17.3334ZM13.6152 6.49997C11.1893 6.49997 9.22297 8.43962 9.22297 10.8332C9.22297 13.2263 11.1893 15.1668 13.6152 15.1668C16.0406 15.1668 18.0069 13.2263 18.0069 10.8332C18.0069 8.43962 16.0406 6.49997 13.6152 6.49997Z" fill="#F92F5F"/>
<path d="M40.9999 46.918C39.8953 46.918 38.9999 47.8134 38.9999 48.918V51.2999C38.9999 52.4045 38.1045 53.2999 36.9999 53.2999H29.0836C27.979 53.2999 27.0836 52.4045 27.0836 51.2999V40.1554C27.0836 39.2906 26.5277 38.5237 25.7057 38.2547L21.9613 37.029C21.1394 36.76 20.5835 35.9931 20.5835 35.1283V27.6453C20.5835 26.5408 21.4789 25.6453 22.5835 25.6453H30.3332C33.3233 25.6416 35.7465 23.2625 35.7503 20.3272V20.2C35.7503 19.0954 34.8548 18.2 33.7503 18.2H5.41663C2.42654 18.2029 0.00381068 20.582 0 23.5182V35.2179C0 36.98 1.45525 38.4088 3.25006 38.4088H3.41663C4.5212 38.4088 5.41663 39.3043 5.41663 40.4088V55.5543C5.41663 56.6588 4.5212 57.5543 3.41663 57.5543H2C0.895432 57.5543 0 58.4497 0 59.5543V63.9165C0 64.5149 0.485097 65 1.0835 65C1.68189 65 2.16699 64.5149 2.16699 63.9165V61.6814C2.16699 60.5769 3.06242 59.6814 4.16699 59.6814H15.3334C16.438 59.6814 17.3334 60.5769 17.3334 61.6814V63.9167C17.3334 64.515 17.8184 65 18.4167 65C19.015 65 19.5 64.515 19.5 63.9167V57.4271C19.5 56.3225 20.3954 55.4271 21.5 55.4271H36.9999C38.1045 55.4271 38.9999 56.3225 38.9999 57.4271V63.9165C38.9999 64.5149 39.485 65 40.0834 65C40.6818 65 41.1669 64.5149 41.1669 63.9165V51.0451C41.1669 49.9406 42.0623 49.0451 43.1669 49.0451H60.8334C61.938 49.0451 62.8334 49.9406 62.8334 51.0451V63.9167C62.8334 64.515 63.3184 65 63.9167 65C64.515 65 65 64.515 65 63.9167V48.918C65 47.8134 64.1046 46.918 63 46.918H40.9999ZM6.50013 24.5815C5.90173 24.5815 5.41663 25.0666 5.41663 25.665V34.2816C5.41663 35.3862 4.5212 36.2816 3.41663 36.2816H3.25006C2.65179 36.2816 2.16699 35.8052 2.16699 35.2179V23.5182C2.16699 21.7551 3.62181 20.3272 5.41663 20.3272H31.5833C32.6879 20.3272 33.6235 21.3059 32.9684 22.1952C32.378 22.9966 31.4176 23.5182 30.3332 23.5182H20.4169C19.3123 23.5182 18.4169 24.4136 18.4169 25.5182V36.6622C18.4169 37.5271 18.9728 38.294 19.7948 38.563L23.5387 39.7882C24.3606 40.0572 24.9166 40.8241 24.9166 41.689V51.6751C24.9166 52.5724 24.1891 53.2999 23.2918 53.2999C22.3944 53.2999 21.6669 52.5724 21.6669 51.6751V43.321C21.6669 42.4829 21.1444 41.7337 20.358 41.4442L13.5243 38.9282C12.2186 38.4475 10.8333 39.4137 10.8333 40.805V55.9294C10.8333 56.8268 10.1058 57.5543 9.20844 57.5543C8.31108 57.5543 7.58362 56.8268 7.58362 55.9294V25.665C7.58362 25.0666 7.09853 24.5815 6.50013 24.5815ZM18.4167 53.2999C17.8184 53.2999 17.3334 53.7849 17.3334 54.3832V55.5543C17.3334 56.6588 16.438 57.5543 15.3334 57.5543H15.0003C13.8957 57.5543 13.0003 56.6588 13.0003 55.5543V43.8749C13.0003 42.4836 14.3856 41.5174 15.6912 41.9981L18.1909 42.9183C18.9774 43.2079 19.5 43.9571 19.5 44.7952V52.2166C19.5 52.8149 19.015 53.2999 18.4167 53.2999Z" fill="#F92F5F"/>
<path d="M48.3959 42.2C48.3959 43.3046 49.2913 44.2 50.3959 44.2H55.0092C56.1138 44.2 57.0092 43.3046 57.0092 42.2V19.1884C57.0092 18.0838 57.9046 17.1884 59.0092 17.1884H59.6707C61.234 17.1884 62.1929 15.4755 61.3757 14.1428L54.4077 2.78025C53.6273 1.50763 51.7782 1.50763 50.9978 2.78025L44.0299 14.1428C43.2127 15.4755 44.1716 17.1884 45.7348 17.1884H46.3959C47.5005 17.1884 48.3959 18.0838 48.3959 19.1884V42.2ZM48.9226 15.0275C47.651 15.0275 46.871 13.6342 47.5357 12.5502L50.9977 6.90364C51.7781 5.63085 53.6274 5.63085 54.4078 6.90364L57.8699 12.5502C58.5346 13.6342 57.7545 15.0275 56.4829 15.0275C55.5844 15.0275 54.856 15.7559 54.856 16.6544V40.0392C54.856 41.1437 53.9606 42.0392 52.856 42.0392H52.5496C51.445 42.0392 50.5496 41.1437 50.5496 40.0392V16.6544C50.5496 15.7559 49.8212 15.0275 48.9226 15.0275Z" fill="#F92F5F"/>
</svg>
