<svg width="471" height="288" viewBox="0 0 471 288" fill="none" xmlns="http://www.w3.org/2000/svg">
<g clip-path="url(#clip0)">
<path d="M28.6032 267.02V285.139H38.6143L42.9048 267.02H28.6032Z" fill="#332C2A"/>
<path d="M91.0536 268.926C91.0536 268.926 92.9605 286.092 93.4372 287.522C98.2044 287.522 101.065 287.522 101.065 287.522C101.065 287.522 106.309 268.926 105.832 267.019C105.355 265.112 91.0536 268.926 91.0536 268.926Z" fill="#332C2A"/>
<path d="M365.645 267.019L366.598 284.661H375.656C375.656 284.661 381.853 267.973 380.9 266.065C379.946 264.158 365.645 267.019 365.645 267.019Z" fill="#332C2A"/>
<path d="M426.665 266.543C426.665 266.543 428.095 285.139 430.479 287.046C435.723 287.046 438.583 287.046 438.583 287.046C438.583 287.046 442.873 269.881 442.397 266.543C441.92 263.205 426.665 266.543 426.665 266.543Z" fill="#332C2A"/>
<path d="M373.272 128.741C373.272 128.741 375.179 91.0723 368.982 66.2776C362.784 41.4829 349.913 7.62865 275.544 3.33726C201.176 -0.954131 147.783 -0.000489071 147.783 -0.000489071C147.783 -0.000489071 47.6718 -6.19917 37.6607 58.6485C27.6495 123.496 42.4279 186.913 42.4279 186.913L376.132 190.728L373.272 128.741Z" fill="url(#paint0_linear)"/>
<path d="M9.67007 272.041L73.0739 273.948C73.0739 273.948 94.5263 123.273 58.7723 128.041C42.5638 130.425 40.5279 131.407 40.5279 131.407C40.5279 131.407 36.3664 67.9614 43.0405 46.9813C49.7146 26.0012 71.7453 14.7838 105.701 4.38035C124.322 0.032757 133.085 0.000488281 133.085 0.000488281C133.085 0.000488281 73.9361 0.000190648 34.9363 13.127C-3.20139 30.7694 -2.24794 62.2396 2.04254 135.193C6.33303 208.147 9.67007 272.041 9.67007 272.041Z" fill="#F75655"/>
<path d="M347.529 133.509L351.82 272.264H415.224L420.944 263.681C420.944 263.681 425.235 145.43 415.224 133.032C404.736 120.635 400.898 122.099 400.898 122.099C400.898 122.099 359.447 125.403 347.529 133.509Z" fill="#D01E48"/>
<path d="M415.7 272.265V180.239C415.7 180.239 416.177 131.126 400.445 122.067C400.445 122.067 416.654 118.729 429.525 119.206C442.397 119.683 465.279 120.636 469.57 159.259C473.86 197.881 467.186 272.265 467.186 272.265H415.7Z" fill="#E65956"/>
<path d="M122.912 178.253L359.842 180.16C359.842 180.16 403.7 174.438 405.131 195.418C406.561 216.399 407.038 262.173 403.7 271.71C388.922 273.14 120.052 274.094 120.052 274.094L122.912 178.253Z" fill="url(#paint1_linear)"/>
<path d="M445.257 165.456C449.206 165.456 452.408 161.613 452.408 156.873C452.408 152.133 449.206 148.29 445.257 148.29C441.308 148.29 438.106 152.133 438.106 156.873C438.106 161.613 441.308 165.456 445.257 165.456Z" fill="#ECA860"/>
<path d="M379.102 175.632C379.102 175.632 381.486 175.155 383.392 171.817C386.253 167.049 387.206 161.804 389.113 160.374C390.067 159.897 389.113 176.109 389.113 180.4C389.113 180.877 388.636 181.354 387.683 181.354L379.102 180.4V175.632Z" fill="#312B28"/>
<path d="M216.063 128.904L254.678 92.6659C254.678 92.6659 275.653 69.7785 281.851 70.7321C285.665 71.6858 291.385 73.593 302.826 110.785C314.268 147.5 315.221 156.56 315.221 156.56C315.221 156.56 313.314 158.467 311.407 158.467C309.977 158.467 308.547 157.99 308.547 157.99C308.547 157.99 295.199 128.427 290.908 117.937C289.478 114.123 285.665 105.54 282.804 104.586C275.177 102.202 254.201 151.792 254.201 151.792C254.201 151.792 307.594 164.189 330.476 168.004C353.359 171.818 379.102 174.202 379.102 174.202V182.308L287.095 188.03C287.095 188.03 226.074 189.937 213.203 185.169C200.332 179.924 216.063 128.904 216.063 128.904Z" fill="#56536E"/>
<path d="M110.231 95.0496C110.231 95.0496 107.371 93.6192 106.418 93.1423C105.464 92.6655 103.081 92.6655 103.081 92.6655C103.081 92.6655 102.604 97.9106 99.2667 103.632C95.9297 109.354 88.7789 123.182 87.8255 125.566C87.3487 126.997 85.4419 129.381 88.7789 131.765C92.1159 134.149 99.7435 135.103 100.22 132.242C100.697 128.904 103.081 118.891 104.987 113.646C105.941 108.877 109.278 96.0033 110.231 95.0496Z" fill="#8BB6AC"/>
<path d="M105.941 132.24C105.941 132.24 104.034 126.519 106.418 122.227C108.801 117.936 113.568 114.121 113.568 114.121L117.382 110.784C117.382 110.784 140.741 95.5253 142.648 94.0948C144.078 92.6644 149.322 86.9425 149.322 86.9425C149.322 86.9425 152.659 83.1279 160.287 84.0816C167.915 85.0352 196.041 88.373 196.041 88.373C196.041 88.373 214.156 90.2802 219.4 87.8961C224.644 85.512 259.922 75.022 259.922 75.022L263.259 79.3134L227.028 101.247L218.447 105.062C218.447 105.062 207.959 107.446 201.762 106.969C195.564 106.492 181.739 106.015 181.739 106.015C181.739 106.015 189.367 121.75 216.063 128.903C223.691 137.486 223.214 153.221 222.261 161.327C220.354 176.585 212.726 184.691 212.726 184.691C212.726 184.691 157.903 180.876 126.917 154.174C109.278 138.916 105.941 132.24 105.941 132.24Z" fill="#79B7A6"/>
<path d="M139.788 96.004C139.788 96.004 143.602 106.494 141.218 112.216C134.067 112.216 125.486 112.693 116.906 110.785C116.906 110.785 119.289 109.355 120.243 107.925C122.149 106.017 121.196 102.679 120.719 100.772C119.766 98.3881 116.906 95.0503 116.906 95.0503C116.906 95.0503 114.999 92.6662 113.092 92.1894C111.185 91.7126 108.325 89.8053 107.848 88.8517C107.371 87.898 100.697 79.3152 100.697 79.3152C100.697 79.3152 101.174 75.0238 104.511 72.6397C107.848 70.7325 113.092 69.7788 113.092 69.7788C113.092 69.7788 120.719 79.7921 122.626 82.1762C124.533 84.0834 127.393 85.9907 127.393 85.9907C127.393 85.9907 130.73 88.3748 127.87 90.7589C125.486 92.6662 124.533 93.143 125.01 94.0967C125.01 95.0503 128.824 96.9576 130.73 97.4344C135.498 98.8649 139.788 96.004 139.788 96.004Z" fill="#FFC6A6"/>
<path d="M106.894 87.4204C106.894 87.4204 106.894 83.129 105.941 79.7912C105.464 77.8839 106.418 75.9766 108.325 75.4998C110.231 75.023 122.149 70.2548 122.149 63.1025C122.149 55.4733 116.429 53.0892 114.999 52.6124C113.568 52.1356 105.941 51.1819 105.464 57.8574C105.464 65.0097 100.22 68.8243 100.22 68.8243C100.22 68.8243 95.9298 71.6852 95.9298 75.9766C95.9298 79.7912 99.2668 85.5131 106.894 87.4204Z" fill="#273358"/>
<path d="M115.475 92.6657C115.475 92.6657 108.801 96.0035 107.371 95.0498C105.941 94.573 100.22 92.1889 98.3134 86.467C96.4065 80.7452 96.8832 78.8379 97.8366 78.8379C98.7901 78.8379 104.034 82.1756 107.371 87.8975C111.185 94.573 112.615 89.328 115.475 92.6657Z" fill="#FFC6A6"/>
<path d="M304.733 70.2545C302.827 74.5459 298.536 75.9763 294.246 75.9763H268.026L268.979 69.3008L305.21 68.3472V70.2545H304.733Z" fill="#372D2A"/>
<path d="M258.968 75.023L263.258 79.7912C263.258 79.7912 267.072 83.1289 273.746 82.1753C280.42 81.2216 285.664 76.4534 285.664 76.4534C285.664 76.4534 284.234 75.9766 283.757 75.9766C281.851 75.9766 275.176 75.9766 272.316 75.9766C268.026 75.4998 268.979 73.5925 269.933 73.1157C270.886 72.6389 275.653 72.6389 277.083 71.6852C278.514 70.7316 280.42 69.3011 279.467 67.8706C278.514 66.4402 276.13 68.8243 275.653 68.8243C275.177 68.8243 271.363 68.3475 268.026 69.7779C264.689 71.2084 260.875 73.1157 258.968 75.023Z" fill="#FCC5A8"/>
<path d="M309.5 157.512L310.931 163.711C310.931 164.188 311.407 164.665 311.884 164.188C315.221 163.234 328.092 159.42 329.523 158.943C330.953 157.989 329.999 157.036 329.523 157.036C320.465 157.036 314.268 156.082 314.268 156.082L309.5 157.512Z" fill="#312B28"/>
<path d="M56.4105 128.122C56.4105 128.122 106.309 117.774 119.657 138.754C131.575 157.827 133.005 236.503 126.808 273.695H73.415C73.415 273.695 78.659 195.496 73.415 162.596C68.1711 129.695 61.6544 129.076 56.4105 128.122Z" fill="#E65856"/>
<path d="M104.879 170.701C108.828 170.701 112.029 166.859 112.029 162.118C112.029 157.378 108.828 153.536 104.879 153.536C100.929 153.536 97.7277 157.378 97.7277 162.118C97.7277 166.859 100.929 170.701 104.879 170.701Z" fill="#ECA860"/>
</g>
<defs>
<linearGradient id="paint0_linear" x1="380.14" y1="16.4186" x2="70.0485" y2="150.824" gradientUnits="userSpaceOnUse">
<stop stop-color="#EA5D53"/>
<stop offset="1" stop-color="#DF2451"/>
</linearGradient>
<linearGradient id="paint1_linear" x1="167.365" y1="226.599" x2="389.72" y2="226.599" gradientUnits="userSpaceOnUse">
<stop stop-color="#DF3059"/>
<stop offset="1" stop-color="#E55555"/>
</linearGradient>
<clipPath id="clip0">
<rect width="471" height="288" fill="white"/>
</clipPath>
</defs>
</svg>
