<svg width="65" height="65" viewBox="0 0 65 65" fill="none" xmlns="http://www.w3.org/2000/svg">
<path d="M32.5 15.1667C22.9271 15.1667 15.1666 22.9271 15.1666 32.5C15.1666 42.0729 22.9271 49.8333 32.5 49.8333C42.0728 49.8333 49.8333 42.0729 49.8333 32.5C49.8219 22.9317 42.0682 15.1781 32.5 15.1667ZM47.6114 31.4167H41.0919C40.8986 29.876 40.2926 28.4163 39.338 27.1917L43.9486 22.581C46.0961 25.0507 47.3817 28.1521 47.6114 31.4167ZM33.5833 17.3886C36.8472 17.6188 39.9477 18.9043 42.4168 21.0514L37.8083 25.662C36.5837 24.7073 35.1239 24.1013 33.5833 23.9081V17.3886ZM31.4166 17.3886V23.9081C29.876 24.1013 28.4162 24.7073 27.1916 25.662L22.581 21.0514C25.0507 18.9039 28.152 17.6183 31.4166 17.3886ZM21.0513 22.5832L25.662 27.1917C24.7073 28.4163 24.1013 29.876 23.908 31.4167H17.3885C17.6188 28.1527 18.9043 25.0522 21.0513 22.5832ZM17.3885 33.5833H23.908C24.1013 35.124 24.7073 36.5838 25.662 37.8083L21.0513 42.419C18.9039 39.9493 17.6182 36.848 17.3885 33.5833ZM31.4166 47.6114C28.1527 47.3812 25.0523 46.0957 22.5831 43.9487L27.1916 39.338C28.4162 40.2927 29.876 40.8987 31.4166 41.0919V47.6114ZM26 32.5C26 28.9101 28.9101 26 32.5 26C36.0899 26 39 28.9101 39 32.5C38.9964 36.0884 36.0884 38.9965 32.5 39C28.9101 39 26 36.0899 26 32.5ZM33.5833 47.6114V41.0919C35.1239 40.8987 36.5837 40.2927 37.8083 39.338L42.419 43.9487C39.9492 46.0961 36.8479 47.3818 33.5833 47.6114ZM43.9486 42.4168L39.338 37.8083C40.2926 36.5838 40.8986 35.124 41.0919 33.5833H47.6114C47.3812 36.8473 46.0957 39.9477 43.9486 42.4168Z" fill="#F92F5F"/>
<path d="M32.5 28.1667C30.1067 28.1667 28.1666 30.1068 28.1666 32.5C28.1666 34.8932 30.1067 36.8334 32.5 36.8334C34.8932 36.8334 36.8333 34.8932 36.8333 32.5C36.8333 30.1068 34.8932 28.1667 32.5 28.1667ZM32.5 34.6667C31.3033 34.6667 30.3333 33.6967 30.3333 32.5C30.3333 31.3033 31.3033 30.3334 32.5 30.3334C33.6966 30.3334 34.6666 31.3033 34.6666 32.5C34.6666 33.6967 33.6966 34.6667 32.5 34.6667Z" fill="#F92F5F"/>
<path d="M61.75 29.25H57.4167C57.328 29.25 57.2395 29.261 57.1534 29.2825L54.0204 30.0658C53.5631 26.0225 51.9702 22.1913 49.426 19.0158L52.208 17.3463C52.2841 17.301 52.3543 17.2464 52.4171 17.1838L55.4808 14.1202C56.75 12.851 56.7503 10.7933 55.4812 9.52399C55.481 9.52385 55.4809 9.52372 55.4808 9.52358C54.1952 8.29508 52.1708 8.29508 50.8853 9.52358L47.8205 12.5873C47.7579 12.6501 47.7034 12.7202 47.658 12.7963L45.9886 15.5783C42.8131 13.0341 38.9819 11.4412 34.9386 10.9839L35.7218 7.85092C35.7423 7.7633 35.7518 7.67339 35.75 7.58333V3.25C35.75 1.45505 34.2949 0 32.5 0C30.7051 0 29.25 1.45505 29.25 3.25V7.58333C29.25 7.67203 29.261 7.76046 29.2825 7.84658L30.0658 10.9796C26.0225 11.4369 22.1913 13.0298 19.0158 15.574L17.3463 12.792C17.301 12.7159 17.2464 12.6458 17.1838 12.5829L14.1158 9.51925C12.8298 8.29116 10.8054 8.29116 9.51925 9.51925C8.25053 10.7884 8.25053 12.8456 9.51925 14.1148L12.5829 17.1795C12.6458 17.2421 12.7159 17.2966 12.792 17.342L15.574 19.0114C13.0298 22.1869 11.4369 26.0181 10.9796 30.0614L7.84658 29.2825C7.76046 29.261 7.67203 29.25 7.58333 29.25H3.25C1.45505 29.25 0 30.7051 0 32.5C0 34.2949 1.45505 35.75 3.25 35.75H7.58333C7.67203 35.75 7.76046 35.739 7.84658 35.7175L10.9796 34.9343C11.4369 38.9775 13.0298 42.8087 15.574 45.9842L12.792 47.6537C12.7159 47.699 12.6458 47.7536 12.5829 47.8162L9.51925 50.8842C8.23956 52.1429 8.22264 54.2005 9.4812 55.4802C10.7399 56.7599 12.7976 56.7768 14.0772 55.5183C14.0898 55.5059 14.1023 55.4933 14.1148 55.4808L17.1795 52.4171C17.2421 52.3543 17.2966 52.2841 17.342 52.208L19.0114 49.426C22.1869 51.9702 26.0181 53.5631 30.0614 54.0204L29.2782 57.1534C29.258 57.2397 29.2486 57.3281 29.25 57.4167V61.75C29.25 63.5449 30.7051 65 32.5 65C34.2949 65 35.75 63.5449 35.75 61.75V57.4167C35.75 57.328 35.739 57.2395 35.7175 57.1534L34.9343 54.0204C38.9775 53.5631 42.8087 51.9702 45.9842 49.426L47.6537 52.208C47.699 52.2841 47.7536 52.3543 47.8162 52.4171L50.8798 55.4808C52.1385 56.7604 54.1962 56.7774 55.4759 55.5187C56.7556 54.26 56.7725 52.2023 55.5138 50.9226C55.5015 50.91 55.489 50.8976 55.4764 50.8853L52.4128 47.8205C52.3499 47.7579 52.2798 47.7034 52.2037 47.658L49.4217 45.9886C51.9659 42.8131 53.5588 38.9819 54.0161 34.9386L57.1491 35.7218C57.2367 35.7423 57.3266 35.7518 57.4167 35.75H61.75C63.5449 35.75 65 34.2949 65 32.5C65 30.7051 63.5449 29.25 61.75 29.25ZM10.8333 32.7373L7.45008 33.5833H3.25C2.65173 33.5833 2.16667 33.0983 2.16667 32.5C2.16667 31.9017 2.65173 31.4167 3.25 31.4167H7.45008L10.8333 32.2628V32.7373ZM49.4466 14.0205L52.4171 11.05C52.8453 10.6398 53.5207 10.6398 53.9489 11.05C54.3711 11.4729 54.3711 12.1578 53.9489 12.5808L50.9795 15.5513L47.9917 17.3474L47.6558 17.0116L49.4466 14.0205ZM31.4167 3.25C31.4167 2.65173 31.9017 2.16667 32.5 2.16667C33.0983 2.16667 33.5833 2.65173 33.5833 3.25V7.45008L32.7373 10.8333H32.2628L31.4167 7.45008V3.25ZM14.0205 15.5502L11.05 12.5829C10.6271 12.1599 10.6271 11.4741 11.05 11.0511C11.4781 10.6416 12.1527 10.6416 12.5808 11.0511L15.5513 14.0205L17.3474 17.0083L17.0116 17.3442L14.0205 15.5502ZM15.5534 50.9795L12.5829 53.95C12.1547 54.3602 11.4793 54.3602 11.0511 53.95C10.6289 53.5271 10.6289 52.8422 11.0511 52.4193L14.0205 49.4488L17.0083 47.6526L17.3442 47.9884L15.5534 50.9795ZM33.5833 61.75C33.5833 62.3483 33.0983 62.8333 32.5 62.8333C31.9017 62.8333 31.4167 62.3483 31.4167 61.75V57.5499L32.2628 54.1667H32.7373L33.5833 57.5499V61.75ZM50.9795 49.4498L53.95 52.4171C54.3729 52.8401 54.3729 53.5259 53.95 53.9489C53.5219 54.3584 52.8473 54.3584 52.4193 53.9489L49.4488 50.9795L47.6526 47.9917L47.9884 47.6558L50.9795 49.4498ZM32.5 52C21.7304 52 13 43.2696 13 32.5C13 21.7304 21.7304 13 32.5 13C43.2696 13 52 21.7304 52 32.5C51.9874 43.2644 43.2644 51.9874 32.5 52ZM61.75 33.5833H57.5499L54.1667 32.7373V32.2671L57.5499 31.4167H61.75C62.3483 31.4167 62.8333 31.9017 62.8333 32.5C62.8333 33.0983 62.3483 33.5833 61.75 33.5833Z" fill="#F92F5F"/>
</svg>
