<svg width="65" height="65" viewBox="0 0 65 65" fill="none" xmlns="http://www.w3.org/2000/svg">
<g clip-path="url(#clip0)">
<path d="M58.5661 26.4593H43.301C41.6536 26.4593 40.3136 27.7998 40.3136 29.4472V38.6717H37.1294V33.5176C37.1294 31.8702 35.7894 30.5303 34.142 30.5303H30.018C29.6922 30.5303 29.3862 30.3855 29.1799 30.1331L27.0559 27.5375L44.0979 1.47335C44.386 1.03298 44.2626 0.443343 43.8222 0.155218C43.3823 -0.13241 42.7922 -0.0089285 42.5041 0.430945L32.1088 16.3299L25.4883 10.7033L29.9144 1.35979C30.139 0.884704 29.9367 0.316885 29.4611 0.0917415C28.9865 -0.132906 28.4182 0.0694255 28.193 0.545004L19.105 19.7313L12.5193 26.317C11.3544 27.4819 11.3544 29.3768 12.5193 30.5417L20.4861 38.5085C21.3048 39.3277 22.2897 39.9194 23.3649 40.2551C23.1407 40.6736 23.0133 41.1517 23.0133 41.659V50.884H8.70026C7.05284 50.884 5.71289 52.2239 5.71289 53.8713V64.0479C5.71289 64.5736 6.13937 65.0001 6.66504 65.0001C7.19071 65.0001 7.61719 64.5736 7.61719 64.0479V53.8713C7.61719 53.2738 8.10318 52.7878 8.70026 52.7878H23.9654C24.4911 52.7878 24.9176 52.3618 24.9176 51.8361V41.659C24.9176 41.0619 25.4035 40.576 26.0006 40.576H41.2658C41.7914 40.576 42.2179 40.1495 42.2179 39.6238V29.4472C42.2179 28.8496 42.7039 28.3641 43.301 28.3641H58.5661C59.0918 28.3641 59.5183 27.9377 59.5183 27.412C59.5183 26.8858 59.0918 26.4593 58.5661 26.4593ZM21.0127 20.1514L22.8174 16.3423L28.7668 21.4417L25.7913 25.9917L21.0127 20.1514ZM31.0584 17.9366L29.8177 19.834L23.6624 14.558L24.6443 12.4851L31.0584 17.9366ZM25.4769 38.6717C24.1003 38.6717 22.806 38.1356 21.8325 37.1621L13.8657 29.1953C13.4432 28.7728 13.4432 28.0859 13.8657 27.6634L14.8064 26.7232L23.7135 35.6302C24.2778 36.1946 25.0281 36.5055 25.8261 36.5055H30.0711C30.5972 36.5055 31.0232 36.079 31.0232 35.5534C31.0232 35.0272 30.5972 34.6012 30.0711 34.6012H25.8261C25.5369 34.6012 25.2647 34.4881 25.0599 34.2838L16.1528 25.3763L19.824 21.7055L27.7061 31.3391C28.2754 32.0354 29.1184 32.4346 30.018 32.4346H34.142C34.7391 32.4346 35.2251 32.9206 35.2251 33.5176V34.6012H34.1415C33.6153 34.6012 33.1894 35.0272 33.1894 35.5534C33.1894 36.079 33.6153 36.5055 34.1415 36.5055H35.2251V38.6717H25.4769Z" fill="#F92F5F"/>
</g>
<defs>
<clipPath id="clip0">
<rect width="65" height="65" fill="white"/>
</clipPath>
</defs>
</svg>
