<svg width="24" height="24" viewBox="0 0 24 24" fill="none" xmlns="http://www.w3.org/2000/svg">
<g clip-path="url(#clip0)">
<path d="M24 4.55899C23.1166 4.9504 22.1688 5.21585 21.173 5.33436C22.1898 4.72546 22.9682 3.75966 23.3371 2.61236C22.3833 3.17624 21.3304 3.5857 20.2086 3.80766C19.3103 2.84934 18.0325 2.25244 16.6153 2.25244C13.8963 2.25244 11.6917 4.45703 11.6917 7.17452C11.6917 7.55993 11.7352 7.93636 11.8192 8.29632C7.728 8.09083 4.1002 6.13071 1.67216 3.15224C1.24773 3.87813 1.00627 4.72393 1.00627 5.62679C1.00627 7.33499 1.87612 8.8422 3.19588 9.724C2.38902 9.69702 1.63016 9.47506 0.965804 9.10612V9.16761C0.965804 11.5522 2.66349 13.5423 4.91455 13.9952C4.50212 14.1062 4.06722 14.1677 3.61729 14.1677C3.29937 14.1677 2.99192 14.1362 2.69047 14.0762C3.31733 16.0333 5.13502 17.4565 7.28863 17.4956C5.60443 18.8153 3.48082 19.5997 1.17427 19.5997C0.776863 19.5997 0.385412 19.5757 0 19.5322C2.1791 20.9314 4.76612 21.7473 7.54659 21.7473C16.6034 21.7473 21.554 14.2457 21.554 7.73993L21.5375 7.10256C22.5047 6.41263 23.3416 5.54581 24 4.55899Z" fill="#9C9C9C"/>
</g>
<defs>
<clipPath id="clip0">
<rect width="24" height="24" fill="white" transform="matrix(1 0 0 -1 0 24)"/>
</clipPath>
</defs>
</svg>
