<svg width="30" height="22" viewBox="0 0 30 22" fill="none" xmlns="http://www.w3.org/2000/svg">
<g clip-path="url(#clip0)">
<path d="M29.0215 18.2793C28.9877 18.2094 28.9561 18.1514 28.9268 18.1049C28.4412 17.2678 27.5098 16.2382 26.1331 15.0159L26.104 14.9879L26.0894 14.9742L26.0747 14.9601L26.0599 14.96C25.4351 14.391 25.0397 14.0085 24.8743 13.8129C24.5717 13.4404 24.5058 13.0648 24.6747 12.6857C24.7942 12.3992 25.2401 11.7954 26.0113 10.8735C26.417 10.3848 26.7384 9.99321 26.9757 9.69812C28.6874 7.57749 29.4322 6.22023 29.2099 5.62579L29.123 5.48666C29.0646 5.40287 28.9129 5.3256 28.6682 5.25448C28.4229 5.18349 28.1089 5.17007 27.7257 5.21399L23.4845 5.21544C23.416 5.19204 23.3179 5.19358 23.1899 5.22063C23.062 5.24769 22.9981 5.26127 22.9981 5.26127L22.9241 5.29561L22.8652 5.33707C22.816 5.36441 22.7617 5.41271 22.7023 5.48186C22.6432 5.55076 22.5936 5.63175 22.5539 5.72414C22.0852 6.84239 21.5538 7.88149 20.9587 8.84138C20.5919 9.41368 20.2552 9.90954 19.9479 10.3293C19.6411 10.7488 19.3839 11.0578 19.1766 11.2555C18.9691 11.4535 18.7819 11.612 18.614 11.7315C18.4463 11.8511 18.3185 11.9013 18.2304 11.8821C18.142 11.8629 18.0588 11.8439 17.9801 11.8249C17.8432 11.7406 17.7335 11.6265 17.6511 11.4824C17.5683 11.3382 17.5131 11.1572 17.485 10.9392C17.457 10.7212 17.4408 10.5337 17.4369 10.3761C17.4332 10.2187 17.4367 9.99606 17.4485 9.70892C17.4605 9.42164 17.4662 9.22725 17.4669 9.12532C17.4691 8.77318 17.4787 8.39106 17.4958 7.97885C17.5132 7.56664 17.5273 7.24003 17.5388 6.99943C17.5503 6.75859 17.5565 6.50374 17.5582 6.23504C17.5598 5.96634 17.5438 5.7555 17.5105 5.60235C17.4776 5.44939 17.4266 5.30079 17.359 5.15662C17.2911 5.0126 17.191 4.90089 17.0592 4.82122C16.9272 4.74164 16.7628 4.67812 16.5671 4.63047C16.0474 4.51612 15.3851 4.45191 14.58 4.43759C12.7542 4.40782 11.5803 4.51185 11.0585 4.74954C10.8517 4.85005 10.6643 4.98797 10.4964 5.16286C10.3184 5.36568 10.293 5.47681 10.4205 5.4959C11.0091 5.58283 11.4249 5.78464 11.6685 6.10115L11.7559 6.26861C11.8239 6.38947 11.8913 6.6031 11.9582 6.90922C12.025 7.21534 12.0672 7.55378 12.0844 7.92434C12.1292 8.60112 12.1256 9.18019 12.0736 9.66161C12.0215 10.1432 11.9728 10.5181 11.9268 10.7865C11.8808 11.0549 11.8133 11.2723 11.7239 11.4384C11.6345 11.6047 11.575 11.7062 11.5452 11.743C11.5156 11.7799 11.4909 11.803 11.4713 11.8121C11.3434 11.8574 11.2106 11.8801 11.0732 11.8793C10.9357 11.8784 10.7693 11.8124 10.5738 11.6815C10.3783 11.5505 10.1757 11.371 9.96602 11.1426C9.75631 10.9142 9.52019 10.5954 9.25754 10.1862C8.9951 9.7769 8.72317 9.29343 8.44189 8.73577L8.20882 8.33117C8.06317 8.0709 7.86435 7.69202 7.61215 7.19485C7.35979 6.69749 7.137 6.21652 6.94361 5.75204C6.86636 5.55699 6.74942 5.40814 6.59299 5.30524L6.51954 5.26297C6.47077 5.22567 6.39236 5.1859 6.28472 5.14337C6.17692 5.10089 6.06435 5.07021 5.94656 5.05103L1.91148 5.05375C1.49917 5.05121 1.21886 5.13763 1.07047 5.31279L1.011 5.39571C0.981264 5.44192 0.965952 5.51592 0.965322 5.6179C0.964692 5.71983 0.993371 5.84511 1.05141 5.9936C1.63236 7.30376 2.26513 8.56774 2.9497 9.78575C3.63428 11.0038 4.22964 11.9852 4.73543 12.7291C5.24132 13.4736 5.75732 14.1764 6.28343 14.8373C6.80954 15.4985 7.15787 15.9223 7.32843 16.1085C7.49919 16.2952 7.63337 16.4347 7.73095 16.528L8.09711 16.8637C8.33134 17.0876 8.67568 17.3561 9.13028 17.6692C9.58499 17.9826 10.0886 18.2914 10.6414 18.5962C11.1943 18.9005 11.8382 19.15 12.5734 19.3445C13.3085 19.5391 14.0247 19.6198 14.722 19.5873L16.4155 19.5978C16.7591 19.5719 17.02 19.4716 17.1979 19.2967L17.257 19.2274C17.2967 19.1724 17.3341 19.0867 17.3689 18.9713C17.404 18.8557 17.4219 18.7282 17.4228 18.5895C17.4152 18.1911 17.4496 17.8323 17.525 17.5131C17.6003 17.194 17.6855 16.9536 17.7801 16.792C17.8746 16.6305 17.9809 16.4943 18.0991 16.3842C18.2175 16.2738 18.3017 16.2069 18.3511 16.1841C18.4001 16.1611 18.4393 16.1455 18.4688 16.1362C18.7049 16.0635 18.9817 16.137 19.2997 16.3569C19.6175 16.5766 19.9151 16.8473 20.1931 17.1686C20.471 17.4901 20.8049 17.851 21.1951 18.2517C21.5855 18.6527 21.9272 18.951 22.2204 19.1477L22.5138 19.3162C22.7097 19.4287 22.9643 19.5322 23.278 19.6268C23.591 19.7213 23.8657 19.7462 24.102 19.7014L27.872 19.6692C28.2448 19.6715 28.5353 19.615 28.7418 19.5007C28.9488 19.3861 29.0721 19.2593 29.1124 19.1208C29.1527 18.9821 29.1558 18.8245 29.1228 18.648C29.089 18.4721 29.0553 18.3489 29.0215 18.2793Z" fill="#9C9C9C"/>
</g>
<defs>
<clipPath id="clip0">
<rect width="28.2839" height="21.7568" fill="white" transform="translate(1) rotate(0.353929)"/>
</clipPath>
</defs>
</svg>
